# Exported by ZModeler 2.2.6 (Build 981) with WavefrontOBJ filter (Build 45)
# 

mtllib cement_block.mtl

v 0.004297 0.347894 0.753923
v 0.004297 0.379331 0.752528
v -0.004297 0.347894 0.753923
v 0.008595 0.347567 0.746486
v 0.008595 0.378606 0.745121
v 0.004297 0.34724 0.73905
v 0.004297 0.377881 0.737713
v -0.004297 0.34724 0.73905
v -0.008595 0.347567 0.746486
v -0.004297 0.377881 0.737713
v -0 0.347189 0.7379
v -0 0.377769 0.736567
v -0 0.347189 0.7379
v -0 0.377769 0.736567
v -0.008595 0.378606 0.745121
v -0.004297 0.379331 0.752528
v -0.008595 0.40779 0.740676
v 0.004297 0.409773 0.74785
v 0.008595 0.40779 0.740676
v 0.004297 0.405808 0.733502
v -0.004297 0.405808 0.733502
v -0 0.405501 0.732392
v -0 0.405501 0.732392
v -0.004297 0.409773 0.74785
v -0.008595 0.432532 0.730559
v 0.004297 0.436803 0.736654
v 0.008595 0.432532 0.730559
v 0.004297 0.42826 0.724463
v -0.004297 0.42826 0.724463
v -0 0.427599 0.72352
v -0 0.427599 0.72352
v -0.004297 0.436803 0.736654
v -0.008595 0.446258 0.715417
v 0.004297 0.4529 0.718776
v 0.008595 0.446258 0.715417
v 0.004297 0.439616 0.712057
v -0.004297 0.439616 0.712057
v -0 0.438589 0.711537
v -0 0.438589 0.711537
v -0.004297 0.4529 0.718776
v -0.004297 0.457325 0.697556
v 0.004297 0.457325 0.697556
v 0.008595 0.449882 0.697556
v -0.008595 0.449882 0.697556
v 0.004297 0.442438 0.697556
v -0.004297 0.442438 0.697556
v -0.008595 0.446258 0.679695
v -0.004297 0.4529 0.676335
v 0.008595 0.446258 0.679695
v 0.004297 0.439616 0.683054
v -0.004297 0.439616 0.683054
v -0 0.441287 0.697556
v -0 0.438589 0.683574
v -0 0.441287 0.697556
v -0 0.438589 0.683574
v -0.004297 0.436803 0.658457
v 0.004297 0.4529 0.676335
v 0.004297 0.436803 0.658457
v 0.008595 0.432532 0.664553
v -0.008595 0.432532 0.664553
v 0.004297 0.42826 0.670648
v -0.004297 0.42826 0.670648
v -0.004297 0.409773 0.647261
v 0.004297 0.409773 0.647261
v 0.008595 0.40779 0.654435
v -0.008595 0.40779 0.654435
v -0 0.427599 0.671591
v 0.004297 0.405808 0.66161
v -0.004297 0.405808 0.66161
v -0 0.427599 0.671591
v -0.004297 0.379331 0.642583
v 0.004297 0.379331 0.642583
v 0.008595 0.378606 0.649991
v -0.008595 0.378606 0.649991
v -0 0.405501 0.66272
v 0.004297 0.377881 0.657399
v -0.004297 0.377881 0.657399
v -0 0.405501 0.66272
v -0.004297 0.347894 0.641189
v 0.004297 0.347894 0.641189
v 0.008595 0.347567 0.648625
v -0.008595 0.347567 0.648625
v -0 0.377769 0.658545
v 0.004297 0.34724 0.656061
v -0.004297 0.34724 0.656061
v -0 0.377769 0.658545
v 0.004297 0.347894 -0.753923
v -0.004297 0.347894 -0.753923
v 0.004297 0.379331 -0.752529
v 0.008595 0.347567 -0.746487
v 0.008595 0.378606 -0.745121
v 0.004297 0.34724 -0.739051
v 0.004297 0.377881 -0.737713
v -0.008595 0.378606 -0.745121
v -0.008595 0.347567 -0.746487
v -0.004297 0.377881 -0.737713
v -0 0.347189 -0.7379
v -0 0.377769 -0.736567
v -0.004297 0.34724 -0.739051
v -0 0.377769 -0.736567
v -0.004297 0.409773 -0.74785
v -0.004297 0.379331 -0.752529
v -0.008595 0.40779 -0.740676
v 0.004297 0.409773 -0.74785
v 0.008595 0.40779 -0.740676
v 0.004297 0.405807 -0.733502
v -0.004297 0.405807 -0.733502
v -0 0.405501 -0.732392
v -0 0.405501 -0.732392
v -0.004297 0.436803 -0.736654
v -0.008595 0.432531 -0.730559
v 0.004297 0.436803 -0.736654
v 0.008595 0.432531 -0.730559
v 0.004297 0.428259 -0.724463
v -0.004297 0.428259 -0.724463
v -0 0.427599 -0.72352
v -0 0.427599 -0.72352
v -0.004297 0.4529 -0.718776
v -0.008595 0.446258 -0.715417
v 0.004297 0.4529 -0.718776
v 0.008595 0.446258 -0.715417
v 0.004297 0.439616 -0.712057
v -0.004297 0.439616 -0.712057
v -0 0.438589 -0.711537
v -0 0.438589 -0.711537
v -0.004297 0.457325 -0.697556
v 0.004297 0.457325 -0.697556
v 0.008595 0.449882 -0.697556
v 0.004297 0.442438 -0.697556
v -0.008595 0.449882 -0.697556
v -0 0.441287 -0.697556
v -0.004297 0.442438 -0.697556
v -0.004297 0.4529 -0.676335
v -0.008595 0.446258 -0.679695
v 0.004297 0.4529 -0.676335
v 0.008595 0.446258 -0.679695
v 0.004297 0.439616 -0.683054
v -0.004297 0.439616 -0.683054
v -0 0.438589 -0.683574
v -0 0.438589 -0.683574
v -0.004297 0.436803 -0.658458
v 0.004297 0.436803 -0.658458
v 0.008595 0.432531 -0.664553
v 0.004297 0.428259 -0.670648
v -0.008595 0.432531 -0.664553
v -0 0.427599 -0.671591
v -0.004297 0.428259 -0.670648
v -0.004297 0.409773 -0.647261
v 0.004297 0.409773 -0.647261
v 0.008595 0.40779 -0.654436
v 0.004297 0.405807 -0.66161
v -0.008595 0.40779 -0.654436
v -0 0.405501 -0.66272
v -0 0.427599 -0.671591
v -0.004297 0.405807 -0.66161
v -0.004297 0.379331 -0.642583
v 0.004297 0.379331 -0.642583
v 0.008595 0.378606 -0.649991
v 0.004297 0.377881 -0.657399
v -0.008595 0.378606 -0.649991
v -0 0.377769 -0.658545
v -0 0.405501 -0.66272
v -0.004297 0.377881 -0.657399
v -0.004297 0.347894 -0.641189
v 0.004297 0.347894 -0.641189
v 0.008595 0.347567 -0.648625
v 0.004297 0.34724 -0.656061
v -0.008595 0.347567 -0.648625
v -0 0.347189 -0.657211
v -0 0.377769 -0.658545
v -0.004297 0.34724 -0.656061
v -0 0.347189 0.657211
v -0 0.347189 0.657211
v -0 0.347189 -0.7379
v -0 0.441287 -0.697556
v -0 0.347189 -0.657211
v 0.110722 0.289726 -0.989989
v -0.110722 0.289726 -0.989989
v 0.110722 0.35 -0.989989
v 0.25 -0.35 -1.2
v 0.25 0.35 -1.2
v 0.25 -0.35 1.2
v -0.110722 0.234358 1.14756
v -0.110722 -0.234358 1.14756
v 0.110722 0.234358 1.14756
v 0.110722 0.289726 0.989989
v -0.110722 0.289726 0.989989
v 0.110722 0.234358 1.14756
v 0.110722 -0.234358 -1.14756
v -0.110722 -0.234358 -1.14756
v 0.110722 0.234358 -1.14756
v 0.110722 0.234358 -1.14756
v -0.110722 0.234358 -1.14756
v 0.110722 0.289726 -0.989989
v 0.110722 -0.35 1.2
v 0.25 -0.35 1.2
v 0.110722 0.35 1.2
v -0.110722 0.35 0.989989
v -0.110722 0.35 -0.989989
v -0.25 0.35 -1.2
v 0.110722 -0.234358 1.14756
v -0.110722 -0.234358 1.14756
v 0.110722 -0.289726 0.989989
v 0.110722 0.234358 -1.14756
v 0.110722 0.35 -1.2
v 0.110722 -0.35 -1.2
v 0.110722 0.35 -1.2
v 0.25 0.35 -1.2
v 0.110722 -0.35 -1.2
v 0.110722 -0.289726 0.989989
v -0.110722 -0.289726 0.989989
v 0.110722 -0.35 0.989989
v 0.110722 -0.289726 -0.989989
v -0.110722 -0.289726 -0.989989
v 0.110722 -0.234358 -1.14756
v 0.110722 0.35 0.989989
v -0.110722 0.35 0.989989
v 0.110722 0.289726 0.989989
v 0.110722 0.35 1.2
v 0.110722 -0.234358 1.14756
v 0.110722 -0.35 1.2
v -0.25 -0.35 -1.2
v -0.25 -0.35 1.2
v -0.25 0.35 -1.2
v -0.110722 -0.35 1.2
v -0.110722 0.35 1.2
v -0.25 -0.35 1.2
v -0.110722 -0.35 -1.2
v -0.110722 0.35 -1.2
v -0.110722 -0.234358 -1.14756
v -0.110722 0.35 -1.2
v -0.110722 -0.35 -1.2
v -0.25 0.35 -1.2
v -0.25 -0.35 -1.2
v -0.110722 -0.35 -0.989989
v -0.110722 -0.35 0.989989
v -0.110722 -0.35 1.2
v -0.110722 0.234358 1.14756
v -0.110722 0.35 1.2
v 0.110722 -0.35 -0.989989
v -0.110722 -0.35 -0.989989
v 0.110722 -0.289726 -0.989989
v -0.110722 0.35 -0.989989
v 0.25 0.35 1.2
v 0.110722 -0.234358 1.14756
v -0.110722 0.234358 1.14756
v -0.110722 0.234358 -1.14756
v -0.110722 0.289726 -0.989989
v 0.25 0.35 1.2
v 0.110722 0.35 -0.989989
v 0.25 0.35 1.2
v 0.25 0.35 -1.2
v 0.110722 0.35 -1.2
v 0.110722 0.35 0.989989
v 0.110722 0.35 1.2
v -0.25 0.35 1.2
v -0.110722 0.35 1.2
v -0.110722 0.35 -1.2
v -0.110722 -0.289726 0.989989
v 0.110722 -0.234358 -1.14756
v 0.110722 -0.35 -0.989989
v 0.110722 -0.289726 -0.989989
v 0.110722 0.289726 -0.989989
v 0.110722 0.35 -0.989989
v 0.25 -0.35 -1.2
v -0.110722 -0.35 0.989989
v -0.110722 -0.234358 -1.14756
v -0.110722 0.289726 0.989989
v 0.110722 -0.35 0.989989
v 0.110722 -0.289726 0.989989
v 0.110722 0.234358 1.14756
v 0.110722 0.35 0.989989
v 0.110722 0.289726 0.989989
v -0.25 0.35 1.2
v -0.25 0.35 1.2
v -0.110722 0.234358 -1.14756
v -0.110722 0.35 -0.989989
v -0.110722 0.289726 -0.989989
v -0.110722 -0.289726 -0.989989
v -0.110722 -0.35 -0.989989
v -0.25 -0.35 -1.2
v 0.25 -0.35 -1.2
v 0.110722 -0.35 -0.989989
v 0.110722 -0.35 -1.2
v 0.110722 -0.35 0.989989
v 0.25 -0.35 1.2
v 0.110722 -0.35 1.2
v -0.25 -0.35 1.2
v -0.110722 -0.35 1.2
v -0.110722 -0.35 -1.2
v -0.110722 0.35 0.989989
v -0.110722 0.289726 0.989989
v -0.110722 -0.234358 1.14756
v -0.110722 -0.35 0.989989
v -0.110722 -0.289726 0.989989
v -0.110722 -0.289726 -0.989989


vn 0.4999 0.0383 0.8652
vn 0.4926 0.0853 0.8661
vn -0.4999 0.0383 0.8652
vn 1 0.0001 -0.0001
vn 0.9999 0.0019 0.0168
vn 0.6087 -0.0346 -0.7926
vn 0.6151 -0.0761 -0.7848
vn -0.6087 -0.0346 -0.7926
vn -1 0.0001 -0.0001
vn -0.6151 -0.0761 -0.7848
vn -0 -0.0436 -0.9991
vn -0 -0.0964 -0.9953
vn -0 -0.0436 -0.9991
vn -0 -0.0964 -0.9953
vn -0.9999 0.0019 0.0168
vn -0.4926 0.0853 0.8661
vn -0.9993 0.0106 0.0356
vn 0.4839 0.2351 0.843
vn 0.9993 0.0106 0.0356
vn 0.6228 -0.2058 -0.7548
vn -0.6228 -0.2058 -0.7548
vn -0 -0.2625 -0.9649
vn -0 -0.2625 -0.9649
vn -0.4839 0.2351 0.843
vn -0.9975 0.0411 0.0567
vn 0.4716 0.5086 0.7204
vn 0.9975 0.0411 0.0567
vn 0.6365 -0.4398 -0.6336
vn -0.6365 -0.4398 -0.6336
vn -0 -0.5691 -0.8223
vn -0 -0.5691 -0.8223
vn -0.4716 0.5086 0.7204
vn -0.9965 0.0749 0.0382
vn 0.4671 0.7886 0.3999
vn 0.9965 0.0749 0.0382
vn 0.6437 -0.6832 -0.3447
vn -0.6437 -0.6832 -0.3447
vn -0 -0.8931 -0.4498
vn -0 -0.8931 -0.4498
vn -0.4671 0.7886 0.3999
vn -0.4731 0.881 0
vn 0.4731 0.881 0
vn 0.9981 0.0624 0
vn -0.9981 0.0624 0
vn 0.6319 -0.775 0
vn -0.6319 -0.775 0
vn -0.9965 0.0749 -0.0382
vn -0.4671 0.7886 -0.3999
vn 0.9965 0.0749 -0.0382
vn 0.6437 -0.6832 0.3447
vn -0.6437 -0.6832 0.3446
vn -0 -1 0
vn -0 -0.8931 0.4498
vn -0 -1 0
vn -0 -0.8931 0.4498
vn -0.4716 0.5086 -0.7204
vn 0.4671 0.7886 -0.3999
vn 0.4716 0.5086 -0.7204
vn 0.9975 0.0411 -0.0567
vn -0.9975 0.0411 -0.0567
vn 0.6365 -0.4398 0.6336
vn -0.6365 -0.4398 0.6336
vn -0.4839 0.2351 -0.843
vn 0.4839 0.2351 -0.843
vn 0.9993 0.0106 -0.0356
vn -0.9993 0.0106 -0.0356
vn -0 -0.5691 0.8223
vn 0.6228 -0.2058 0.7548
vn -0.6228 -0.2058 0.7548
vn -0 -0.5691 0.8223
vn -0.4926 0.0853 -0.8661
vn 0.4926 0.0853 -0.8661
vn 0.9999 0.0019 -0.0168
vn -0.9999 0.0019 -0.0168
vn -0 -0.2625 0.9649
vn 0.6151 -0.0761 0.7848
vn -0.6151 -0.0761 0.7848
vn -0 -0.2625 0.9649
vn -0.4999 0.0383 -0.8652
vn 0.4999 0.0383 -0.8652
vn 1 0.0001 0.0001
vn -1 0.0001 0.0001
vn -0 -0.0964 0.9953
vn 0.6087 -0.0346 0.7926
vn -0.6087 -0.0346 0.7926
vn -0 -0.0964 0.9953
vn 0.4999 0.0383 -0.8652
vn -0.4999 0.0383 -0.8652
vn 0.4926 0.0853 -0.8661
vn 1 0.0001 0.0001
vn 0.9999 0.0019 -0.0168
vn 0.6087 -0.0346 0.7926
vn 0.6151 -0.0761 0.7848
vn -0.9999 0.0019 -0.0168
vn -1 0.0001 0.0001
vn -0.6151 -0.0761 0.7848
vn -0 -0.0436 0.9991
vn -0 -0.0964 0.9953
vn -0.6087 -0.0346 0.7926
vn -0 -0.0964 0.9953
vn -0.4839 0.2351 -0.843
vn -0.4926 0.0853 -0.8661
vn -0.9993 0.0106 -0.0356
vn 0.4839 0.2351 -0.843
vn 0.9993 0.0106 -0.0356
vn 0.6228 -0.2058 0.7548
vn -0.6228 -0.2058 0.7548
vn -0 -0.2625 0.9649
vn -0 -0.2625 0.9649
vn -0.4716 0.5086 -0.7204
vn -0.9975 0.0411 -0.0567
vn 0.4716 0.5086 -0.7204
vn 0.9975 0.0411 -0.0567
vn 0.6365 -0.4397 0.6336
vn -0.6365 -0.4397 0.6336
vn -0 -0.5691 0.8223
vn -0 -0.5691 0.8223
vn -0.4671 0.7886 -0.3999
vn -0.9965 0.0749 -0.0382
vn 0.4671 0.7886 -0.3999
vn 0.9965 0.0749 -0.0382
vn 0.6437 -0.6832 0.3447
vn -0.6437 -0.6832 0.3447
vn -0 -0.8931 0.4498
vn -0 -0.8931 0.4498
vn -0.4731 0.881 0
vn 0.4731 0.881 0
vn 0.9981 0.0624 0
vn 0.6319 -0.775 0
vn -0.9981 0.0624 0
vn -0 -1 0
vn -0.6319 -0.775 0
vn -0.4671 0.7886 0.3999
vn -0.9965 0.0749 0.0382
vn 0.4671 0.7886 0.3999
vn 0.9965 0.0749 0.0382
vn 0.6437 -0.6832 -0.3447
vn -0.6437 -0.6832 -0.3446
vn -0 -0.8931 -0.4498
vn -0 -0.8931 -0.4498
vn -0.4716 0.5086 0.7204
vn 0.4716 0.5086 0.7204
vn 0.9975 0.0411 0.0567
vn 0.6365 -0.4398 -0.6336
vn -0.9975 0.0411 0.0567
vn -0 -0.5691 -0.8223
vn -0.6365 -0.4398 -0.6336
vn -0.4839 0.2351 0.843
vn 0.4839 0.2351 0.843
vn 0.9993 0.0106 0.0356
vn 0.6228 -0.2058 -0.7548
vn -0.9993 0.0106 0.0356
vn -0 -0.2625 -0.9649
vn -0 -0.5691 -0.8223
vn -0.6228 -0.2058 -0.7548
vn -0.4926 0.0853 0.8661
vn 0.4926 0.0853 0.8661
vn 0.9999 0.0019 0.0168
vn 0.6151 -0.0761 -0.7848
vn -0.9999 0.0019 0.0168
vn -0 -0.0964 -0.9953
vn -0 -0.2625 -0.9649
vn -0.6151 -0.0761 -0.7848
vn -0.4999 0.0383 0.8652
vn 0.4999 0.0383 0.8652
vn 1 0.0001 -0.0001
vn 0.6087 -0.0346 -0.7926
vn -1 0.0001 -0.0001
vn -0 -0.0436 -0.9991
vn -0 -0.0964 -0.9953
vn -0.6087 -0.0346 -0.7926
vn -0 -0.0436 0.9991
vn -0 -0.0436 0.9991
vn -0 -0.0436 0.9991
vn -0 -1 0
vn -0 -0.0436 -0.9991
vn -0 0 -1
vn -0 0 -1
vn -0 0 -1
vn 1 0 0
vn 1 0 0
vn 1 0 0
vn -0 0 1
vn -0 0 1
vn -0 0 1
vn -0 0.9435 0.3315
vn -0 0.9435 0.3315
vn -0 0.9435 0.3315
vn -0 0 -1
vn -0 0 -1
vn -0 0 -1
vn -0 0.9435 -0.3315
vn -0 0.9435 -0.3315
vn -0 0.9435 -0.3315
vn -0 0 1
vn -0 0 1
vn -0 0 1
vn -0 1 0
vn -0 1 0
vn -0 1 0
vn -0 -0.9435 0.3315
vn -0 -0.9435 0.3315
vn -0 -0.9435 0.3315
vn -1 0 0
vn -1 0 0
vn -1 0 0
vn -0 0 -1
vn -0 0 -1
vn -0 0 -1
vn -0 0 1
vn -0 0 1
vn -0 0 1
vn -0 -0.9435 -0.3315
vn -0 -0.9435 -0.3315
vn -0 -0.9435 -0.3315
vn -0 0 1
vn -0 0 1
vn -0 0 1
vn -1 0 0
vn -1 0 0
vn -1 0 0
vn -1 0 0
vn -1 0 0
vn -1 0 0
vn -0 0 1
vn -0 0 1
vn -0 0 1
vn 1 0 0
vn 1 0 0
vn 1 0 0
vn -0 0 -1
vn -0 0 -1
vn -0 0 -1
vn -0 -1 0
vn -0 -1 0
vn -0 -1 0
vn 1 0 0
vn 1 0 0
vn 1 0 0
vn -0 0 -1
vn -0 0 -1
vn -0 0 -1
vn -0 0 -1
vn 1 0 0
vn -0 0 1
vn -0 0.9435 0.3315
vn -0 0 -1
vn -0 0.9435 -0.3315
vn -0 0 1
vn -0 1 0
vn -0 1 0
vn -0 1 0
vn -0 1 0
vn -0 1 0
vn -0 1 0
vn -0 1 0
vn -0 1 0
vn -0 1 0
vn -0 -0.9435 0.3315
vn -1 0 0
vn -1 0 0
vn -1 0 0
vn -1 0 0
vn -1 0 0
vn -0 0 -1
vn -0 0 1
vn -0 -0.9435 -0.3315
vn -0 0 1
vn -1 0 0
vn -1 0 0
vn -1 0 0
vn -1 0 0
vn -1 0 0
vn -1 0 0
vn -0 0 1
vn 1 0 0
vn 1 0 0
vn 1 0 0
vn 1 0 0
vn 1 0 0
vn -0 0 -1
vn -0 -1 0
vn -0 -1 0
vn -0 -1 0
vn -0 -1 0
vn -0 -1 0
vn -0 -1 0
vn -0 -1 0
vn -0 -1 0
vn -0 -1 0
vn 1 0 0
vn 1 0 0
vn 1 0 0
vn 1 0 0
vn 1 0 0
vn -0 0 -1


vt 0.952497 0.00390601
vt 0.952413 0.014807
vt 0.949312 0.00390601
vt 0.955667 0.00395799
vt 0.955456 0.014854
vt 0.958817 0.00402701
vt 0.958567 0.01493
vt 0.942992 0.00402701
vt 0.946142 0.00395799
vt 0.943242 0.01493
vt 0.960403 0.00406301
vt 0.960158 0.01497
vt 0.941406 0.00406301
vt 0.941651 0.01497
vt 0.946353 0.014854
vt 0.949396 0.014807
vt 0.94659 0.024915
vt 0.952324 0.024844
vt 0.955219 0.024915
vt 0.958281 0.025029
vt 0.943528 0.025029
vt 0.959893 0.025083
vt 0.941916 0.025083
vt 0.949486 0.024844
vt 0.946941 0.033718
vt 0.95219 0.033622
vt 0.954868 0.033718
vt 0.957902 0.033873
vt 0.943907 0.033873
vt 0.959573 0.033921
vt 0.942236 0.033921
vt 0.949619 0.033622
vt 0.947094 0.040282
vt 0.952112 0.040258
vt 0.954715 0.040282
vt 0.957819 0.040324
vt 0.943991 0.040324
vt 0.959531 0.040337
vt 0.942278 0.040337
vt 0.949697 0.040258
vt 0.949663 0.046082
vt 0.952146 0.046082
vt 0.954737 0.046082
vt 0.947073 0.046082
vt 0.957769 0.046082
vt 0.94404 0.046082
vt 0.947094 0.051882
vt 0.949697 0.051907
vt 0.954715 0.051882
vt 0.957819 0.051841
vt 0.943991 0.051841
vt 0.959525 0.046082
vt 0.959531 0.051827
vt 0.942284 0.046082
vt 0.942278 0.051827
vt 0.949619 0.058542
vt 0.952112 0.051907
vt 0.95219 0.058542
vt 0.954868 0.058447
vt 0.946941 0.058447
vt 0.957902 0.058292
vt 0.943907 0.058292
vt 0.949485 0.067321
vt 0.952324 0.067321
vt 0.955219 0.067249
vt 0.94659 0.067249
vt 0.959573 0.058244
vt 0.958281 0.067136
vt 0.943528 0.067136
vt 0.942236 0.058244
vt 0.949396 0.077358
vt 0.952413 0.077358
vt 0.955456 0.077311
vt 0.946353 0.077311
vt 0.959893 0.067082
vt 0.958567 0.077235
vt 0.943242 0.077235
vt 0.941916 0.067082
vt 0.949312 0.088258
vt 0.952497 0.088258
vt 0.955667 0.088207
vt 0.946142 0.088207
vt 0.960158 0.077195
vt 0.958817 0.088137
vt 0.942992 0.088137
vt 0.941651 0.077195
vt 0.925153 0.088258
vt 0.921969 0.088258
vt 0.925069 0.077357
vt 0.928323 0.088207
vt 0.928112 0.077311
vt 0.931474 0.088138
vt 0.931224 0.077235
vt 0.91901 0.077311
vt 0.918799 0.088207
vt 0.915898 0.077235
vt 0.933059 0.088102
vt 0.932815 0.077195
vt 0.915648 0.088138
vt 0.914307 0.077195
vt 0.922142 0.067321
vt 0.922052 0.077358
vt 0.919246 0.067249
vt 0.92498 0.067321
vt 0.927875 0.067249
vt 0.930937 0.067136
vt 0.916184 0.067136
vt 0.932549 0.067082
vt 0.914573 0.067082
vt 0.922276 0.058542
vt 0.919598 0.058447
vt 0.924846 0.058542
vt 0.927524 0.058447
vt 0.930558 0.058291
vt 0.916563 0.058291
vt 0.932229 0.058243
vt 0.914892 0.058243
vt 0.922353 0.051907
vt 0.91975 0.051882
vt 0.924768 0.051907
vt 0.927371 0.051882
vt 0.930475 0.051841
vt 0.916647 0.051841
vt 0.932187 0.051827
vt 0.914934 0.051827
vt 0.922319 0.046082
vt 0.924802 0.046082
vt 0.927393 0.046082
vt 0.930425 0.046082
vt 0.919729 0.046082
vt 0.932181 0.046082
vt 0.916697 0.046082
vt 0.922353 0.040258
vt 0.91975 0.040282
vt 0.924768 0.040258
vt 0.927371 0.040282
vt 0.930475 0.040324
vt 0.916647 0.040324
vt 0.932187 0.040338
vt 0.914934 0.040337
vt 0.922276 0.033622
vt 0.924846 0.033622
vt 0.927524 0.033718
vt 0.930558 0.033873
vt 0.919598 0.033718
vt 0.932229 0.033921
vt 0.916563 0.033873
vt 0.922142 0.024844
vt 0.92498 0.024844
vt 0.927876 0.024915
vt 0.930937 0.025029
vt 0.919246 0.024915
vt 0.932549 0.025083
vt 0.914892 0.033921
vt 0.916184 0.025029
vt 0.922052 0.014807
vt 0.925069 0.014807
vt 0.928112 0.014854
vt 0.931224 0.01493
vt 0.91901 0.014854
vt 0.932815 0.01497
vt 0.914573 0.025083
vt 0.915898 0.01493
vt 0.921969 0.00390601
vt 0.925153 0.00390601
vt 0.928323 0.00395799
vt 0.931474 0.00402701
vt 0.918799 0.00395799
vt 0.933059 0.00406301
vt 0.914307 0.01497
vt 0.915648 0.00402701
vt 0.960403 0.088102
vt 0.941406 0.088102
vt 0.914062 0.088102
vt 0.91494 0.046082
vt 0.914063 0.00406301
vt 0.914062 0.17176
vt 0.914062 0.096071
vt 0.934664 0.17176
vt 0.824219 0.250977
vt 0.824219 0.490235
vt 0.003906 0.250977
vt 0.292969 0.904411
vt 0.453174 0.904411
vt 0.292969 0.9801
vt 0.898438 0.745116
vt 0.974127 0.745116
vt 0.898438 0.802201
vt 0.914112 0.855469
vt 0.914112 0.931158
vt 0.753906 0.855469
vt 0.889116 0.745117
vt 0.889116 0.820806
vt 0.832031 0.745117
vt 0.879636 0.737304
vt 0.832031 0.737304
vt 0.879636 0.498046
vt 0.075687 0.621341
vt 0.752438 0.621341
vt 0.82422 0.668945
vt 0.554688 0.881206
vt 0.630377 0.881206
vt 0.554688 0.938291
vt 0.885888 0.043432
vt 0.903812 0.00390601
vt 0.903812 0.243164
vt 0.890625 0.498046
vt 0.93823 0.498046
vt 0.890625 0.737303
vt 0.945312 0.17176
vt 0.945312 0.096071
vt 0.965914 0.17176
vt 0.054688 0.881206
vt 0.130377 0.881206
vt 0.054688 0.938291
vt 0.140625 0.956894
vt 0.140625 0.881206
vt 0.161227 0.956894
vt 0.743164 0.855469
vt 0.543432 0.873393
vt 0.503906 0.855469
vt 0.003906 0.00390702
vt 0.824219 0.00390601
vt 0.003906 0.243164
vt 0.890625 0.490234
vt 0.890625 0.250976
vt 0.93823 0.490234
vt 0.253906 0.855469
vt 0.493164 0.855469
vt 0.293432 0.873393
vt 0.879636 0.250976
vt 0.879636 0.490234
vt 0.832031 0.250976
vt 0.824219 0.676758
vt 0.752438 0.724363
vt 0.075687 0.724363
vt 0.243164 0.855469
vt 0.043432 0.873393
vt 0.003906 0.855469
vt 0.832031 0.118947
vt 0.832031 0.043258
vt 0.852633 0.118947
vt 0.934664 0.096071
vt 0.003906 0.490235
vt 0.453174 0.9801
vt 0.974127 0.802201
vt 0.753906 0.931158
vt 0.832031 0.820806
vt 0.832031 0.498046
vt 0.752438 0.545652
vt 0.003906 0.498047
vt 0.824219 0.498047
vt 0.824219 0.545652
vt 0.075688 0.545652
vt 0.003906 0.545652
vt 0.003907 0.668946
vt 0.003907 0.621341
vt 0.82422 0.621341
vt 0.630377 0.938291
vt 0.885888 0.203638
vt 0.832031 0.243164
vt 0.832031 0.222562
vt 0.832031 0.024508
vt 0.832031 0.00390601
vt 0.93823 0.737303
vt 0.965914 0.096071
vt 0.130377 0.938291
vt 0.161227 0.881206
vt 0.503906 0.92725
vt 0.524508 0.92725
vt 0.703638 0.873393
vt 0.743164 0.92725
vt 0.722562 0.92725
vt 0.824219 0.243164
vt 0.93823 0.250976
vt 0.453638 0.873393
vt 0.493164 0.92725
vt 0.472562 0.92725
vt 0.274508 0.92725
vt 0.253906 0.92725
vt 0.832031 0.490234
vt 0.82422 0.847657
vt 0.752438 0.800052
vt 0.82422 0.800052
vt 0.075687 0.800052
vt 0.003906 0.847656
vt 0.003906 0.800052
vt 0.003906 0.676758
vt 0.003906 0.724363
vt 0.824219 0.724363
vt 0.003906 0.92725
vt 0.024508 0.92725
vt 0.203638 0.873393
vt 0.243164 0.92725
vt 0.222563 0.92725
vt 0.852633 0.043258


usemtl Material_002

g cement_block

f 1/1/1 2/2/2 3/3/3
f 4/4/4 5/5/5 1/1/1
f 6/6/6 7/7/7 4/4/4
f 8/8/8 9/9/9 10/10/10
f 11/11/11 12/12/12 6/6/6
f 13/13/13 8/8/8 14/14/14
f 15/15/15 16/16/16 17/17/17
f 2/2/2 18/18/18 16/16/16
f 5/5/5 19/19/19 2/2/2
f 7/7/7 20/20/20 5/5/5
f 10/10/10 15/15/15 21/21/21
f 12/12/12 22/22/22 7/7/7
f 14/14/14 10/10/10 23/23/23
f 17/17/17 24/24/24 25/25/25
f 18/18/18 26/26/26 24/24/24
f 19/19/19 27/27/27 18/18/18
f 20/20/20 28/28/28 19/19/19
f 21/21/21 17/17/17 29/29/29
f 22/22/22 30/30/30 20/20/20
f 23/23/23 21/21/21 31/31/31
f 25/25/25 32/32/32 33/33/33
f 26/26/26 34/34/34 32/32/32
f 27/27/27 35/35/35 26/26/26
f 28/28/28 36/36/36 27/27/27
f 29/29/29 25/25/25 37/37/37
f 30/30/30 38/38/38 28/28/28
f 31/31/31 29/29/29 39/39/39
f 40/40/40 41/41/41 33/33/33
f 34/34/34 42/42/42 40/40/40
f 34/34/34 35/35/35 42/42/42
f 35/35/35 36/36/36 43/43/43
f 33/33/33 44/44/44 37/37/37
f 36/36/36 38/38/38 45/45/45
f 37/37/37 46/46/46 39/39/39
f 44/44/44 41/41/41 47/47/47
f 41/41/41 42/42/42 48/48/48
f 43/43/43 49/49/49 42/42/42
f 45/45/45 50/50/50 43/43/43
f 46/46/46 44/44/44 51/51/51
f 52/52/52 53/53/53 45/45/45
f 54/54/54 46/46/46 55/55/55
f 48/48/48 56/56/56 47/47/47
f 48/48/48 57/57/57 56/56/56
f 57/57/57 49/49/49 58/58/58
f 49/49/49 50/50/50 59/59/59
f 47/47/47 60/60/60 51/51/51
f 50/50/50 53/53/53 61/61/61
f 51/51/51 62/62/62 55/55/55
f 56/56/56 63/63/63 60/60/60
f 56/56/56 58/58/58 63/63/63
f 58/58/58 59/59/59 64/64/64
f 59/59/59 61/61/61 65/65/65
f 60/60/60 66/66/66 62/62/62
f 61/61/61 67/67/67 68/68/68
f 62/62/62 69/69/69 70/70/70
f 63/63/63 71/71/71 66/66/66
f 63/63/63 64/64/64 71/71/71
f 64/64/64 65/65/65 72/72/72
f 65/65/65 68/68/68 73/73/73
f 66/66/66 74/74/74 69/69/69
f 68/68/68 75/75/75 76/76/76
f 69/69/69 77/77/77 78/78/78
f 71/71/71 79/79/79 74/74/74
f 71/71/71 72/72/72 79/79/79
f 72/72/72 73/73/73 80/80/80
f 73/73/73 76/76/76 81/81/81
f 74/74/74 82/82/82 77/77/77
f 76/76/76 83/83/83 84/84/84
f 77/77/77 85/85/85 86/86/86
f 87/87/87 88/88/88 89/89/89
f 90/90/90 87/87/87 91/91/91
f 92/92/92 90/90/90 93/93/93
f 94/94/94 95/95/95 96/96/96
f 97/97/97 92/92/92 98/98/98
f 96/96/96 99/99/99 100/100/100
f 101/101/101 102/102/102 103/103/103
f 89/89/89 102/102/102 104/104/104
f 91/91/91 89/89/89 105/105/105
f 93/93/93 91/91/91 106/106/106
f 103/103/103 94/94/94 107/107/107
f 98/98/98 93/93/93 108/108/108
f 107/107/107 96/96/96 109/109/109
f 110/110/110 101/101/101 111/111/111
f 104/104/104 101/101/101 112/112/112
f 105/105/105 104/104/104 113/113/113
f 106/106/106 105/105/105 114/114/114
f 111/111/111 103/103/103 115/115/115
f 108/108/108 106/106/106 116/116/116
f 115/115/115 107/107/107 117/117/117
f 118/118/118 110/110/110 119/119/119
f 112/112/112 110/110/110 120/120/120
f 113/113/113 112/112/112 121/121/121
f 114/114/114 113/113/113 122/122/122
f 119/119/119 111/111/111 123/123/123
f 116/116/116 114/114/114 124/124/124
f 123/123/123 115/115/115 125/125/125
f 118/118/118 119/119/119 126/126/126
f 120/120/120 118/118/118 127/127/127
f 128/128/128 121/121/121 127/127/127
f 129/129/129 122/122/122 128/128/128
f 119/119/119 123/123/123 130/130/130
f 131/131/131 124/124/124 129/129/129
f 123/123/123 125/125/125 132/132/132
f 133/133/133 126/126/126 134/134/134
f 135/135/135 127/127/127 133/133/133
f 128/128/128 127/127/127 136/136/136
f 129/129/129 128/128/128 137/137/137
f 134/134/134 130/130/130 138/138/138
f 131/131/131 129/129/129 139/139/139
f 138/138/138 132/132/132 140/140/140
f 133/133/133 134/134/134 141/141/141
f 142/142/142 135/135/135 141/141/141
f 143/143/143 136/136/136 142/142/142
f 144/144/144 137/137/137 143/143/143
f 134/134/134 138/138/138 145/145/145
f 146/146/146 139/139/139 144/144/144
f 138/138/138 140/140/140 147/147/147
f 141/141/141 145/145/145 148/148/148
f 149/149/149 142/142/142 148/148/148
f 150/150/150 143/143/143 149/149/149
f 151/151/151 144/144/144 150/150/150
f 145/145/145 147/147/147 152/152/152
f 153/153/153 146/146/146 151/151/151
f 147/147/147 154/154/154 155/155/155
f 148/148/148 152/152/152 156/156/156
f 157/157/157 149/149/149 156/156/156
f 158/158/158 150/150/150 157/157/157
f 159/159/159 151/151/151 158/158/158
f 152/152/152 155/155/155 160/160/160
f 161/161/161 153/153/153 159/159/159
f 155/155/155 162/162/162 163/163/163
f 156/156/156 160/160/160 164/164/164
f 165/165/165 157/157/157 164/164/164
f 166/166/166 158/158/158 165/165/165
f 167/167/167 159/159/159 166/166/166
f 160/160/160 163/163/163 168/168/168
f 169/169/169 161/161/161 167/167/167
f 163/163/163 170/170/170 171/171/171
f 9/9/9 3/3/3 15/15/15
f 102/102/102 88/88/88 94/94/94
f 3/3/3 2/2/2 16/16/16
f 1/1/1 5/5/5 2/2/2
f 4/4/4 7/7/7 5/5/5
f 10/10/10 9/9/9 15/15/15
f 6/6/6 12/12/12 7/7/7
f 14/14/14 8/8/8 10/10/10
f 17/17/17 16/16/16 24/24/24
f 16/16/16 18/18/18 24/24/24
f 2/2/2 19/19/19 18/18/18
f 5/5/5 20/20/20 19/19/19
f 21/21/21 15/15/15 17/17/17
f 7/7/7 22/22/22 20/20/20
f 23/23/23 10/10/10 21/21/21
f 25/25/25 24/24/24 32/32/32
f 24/24/24 26/26/26 32/32/32
f 18/18/18 27/27/27 26/26/26
f 19/19/19 28/28/28 27/27/27
f 29/29/29 17/17/17 25/25/25
f 20/20/20 30/30/30 28/28/28
f 31/31/31 21/21/21 29/29/29
f 33/33/33 32/32/32 40/40/40
f 32/32/32 34/34/34 40/40/40
f 26/26/26 35/35/35 34/34/34
f 27/27/27 36/36/36 35/35/35
f 37/37/37 25/25/25 33/33/33
f 28/28/28 38/38/38 36/36/36
f 39/39/39 29/29/29 37/37/37
f 33/33/33 41/41/41 44/44/44
f 40/40/40 42/42/42 41/41/41
f 42/42/42 35/35/35 43/43/43
f 43/43/43 36/36/36 45/45/45
f 37/37/37 44/44/44 46/46/46
f 45/45/45 38/38/38 52/52/52
f 39/39/39 46/46/46 54/54/54
f 47/47/47 41/41/41 48/48/48
f 48/48/48 42/42/42 57/57/57
f 42/42/42 49/49/49 57/57/57
f 43/43/43 50/50/50 49/49/49
f 51/51/51 44/44/44 47/47/47
f 45/45/45 53/53/53 50/50/50
f 55/55/55 46/46/46 51/51/51
f 47/47/47 56/56/56 60/60/60
f 56/56/56 57/57/57 58/58/58
f 58/58/58 49/49/49 59/59/59
f 59/59/59 50/50/50 61/61/61
f 51/51/51 60/60/60 62/62/62
f 61/61/61 53/53/53 67/67/67
f 55/55/55 62/62/62 70/70/70
f 60/60/60 63/63/63 66/66/66
f 63/63/63 58/58/58 64/64/64
f 64/64/64 59/59/59 65/65/65
f 65/65/65 61/61/61 68/68/68
f 62/62/62 66/66/66 69/69/69
f 68/68/68 67/67/67 75/75/75
f 70/70/70 69/69/69 78/78/78
f 66/66/66 71/71/71 74/74/74
f 71/71/71 64/64/64 72/72/72
f 72/72/72 65/65/65 73/73/73
f 73/73/73 68/68/68 76/76/76
f 69/69/69 74/74/74 77/77/77
f 76/76/76 75/75/75 83/83/83
f 78/78/78 77/77/77 86/86/86
f 74/74/74 79/79/79 82/82/82
f 79/79/79 72/72/72 80/80/80
f 80/80/80 73/73/73 81/81/81
f 81/81/81 76/76/76 84/84/84
f 77/77/77 82/82/82 85/85/85
f 84/84/84 83/83/83 172/172/172
f 86/86/86 85/85/85 173/173/173
f 89/89/89 88/88/88 102/102/102
f 91/91/91 87/87/87 89/89/89
f 93/93/93 90/90/90 91/91/91
f 96/96/96 95/95/95 99/99/99
f 98/98/98 92/92/92 93/93/93
f 100/100/100 99/99/99 174/174/174
f 103/103/103 102/102/102 94/94/94
f 104/104/104 102/102/102 101/101/101
f 105/105/105 89/89/89 104/104/104
f 106/106/106 91/91/91 105/105/105
f 107/107/107 94/94/94 96/96/96
f 108/108/108 93/93/93 106/106/106
f 109/109/109 96/96/96 100/100/100
f 111/111/111 101/101/101 103/103/103
f 112/112/112 101/101/101 110/110/110
f 113/113/113 104/104/104 112/112/112
f 114/114/114 105/105/105 113/113/113
f 115/115/115 103/103/103 107/107/107
f 116/116/116 106/106/106 114/114/114
f 117/117/117 107/107/107 109/109/109
f 119/119/119 110/110/110 111/111/111
f 120/120/120 110/110/110 118/118/118
f 121/121/121 112/112/112 120/120/120
f 122/122/122 113/113/113 121/121/121
f 123/123/123 111/111/111 115/115/115
f 124/124/124 114/114/114 122/122/122
f 125/125/125 115/115/115 117/117/117
f 126/126/126 119/119/119 130/130/130
f 127/127/127 118/118/118 126/126/126
f 127/127/127 121/121/121 120/120/120
f 128/128/128 122/122/122 121/121/121
f 130/130/130 123/123/123 132/132/132
f 129/129/129 124/124/124 122/122/122
f 132/132/132 125/125/125 175/175/175
f 134/134/134 126/126/126 130/130/130
f 133/133/133 127/127/127 126/126/126
f 136/136/136 127/127/127 135/135/135
f 137/137/137 128/128/128 136/136/136
f 138/138/138 130/130/130 132/132/132
f 139/139/139 129/129/129 137/137/137
f 140/140/140 132/132/132 175/175/175
f 141/141/141 134/134/134 145/145/145
f 141/141/141 135/135/135 133/133/133
f 142/142/142 136/136/136 135/135/135
f 143/143/143 137/137/137 136/136/136
f 145/145/145 138/138/138 147/147/147
f 144/144/144 139/139/139 137/137/137
f 147/147/147 140/140/140 154/154/154
f 148/148/148 145/145/145 152/152/152
f 148/148/148 142/142/142 141/141/141
f 149/149/149 143/143/143 142/142/142
f 150/150/150 144/144/144 143/143/143
f 152/152/152 147/147/147 155/155/155
f 151/151/151 146/146/146 144/144/144
f 155/155/155 154/154/154 162/162/162
f 156/156/156 152/152/152 160/160/160
f 156/156/156 149/149/149 148/148/148
f 157/157/157 150/150/150 149/149/149
f 158/158/158 151/151/151 150/150/150
f 160/160/160 155/155/155 163/163/163
f 159/159/159 153/153/153 151/151/151
f 163/163/163 162/162/162 170/170/170
f 164/164/164 160/160/160 168/168/168
f 164/164/164 157/157/157 156/156/156
f 165/165/165 158/158/158 157/157/157
f 166/166/166 159/159/159 158/158/158
f 168/168/168 163/163/163 171/171/171
f 167/167/167 161/161/161 159/159/159
f 171/171/171 170/170/170 176/176/176
f 15/15/15 3/3/3 16/16/16
f 94/94/94 88/88/88 95/95/95
f 177/177/177 178/178/178 179/179/179
f 180/180/180 181/181/181 182/182/182
f 183/183/183 184/184/184 185/185/185
f 186/186/186 187/187/187 188/188/188
f 189/189/189 190/190/190 191/191/191
f 192/192/192 193/193/193 194/194/194
f 195/195/195 196/196/196 197/197/197
f 198/198/198 199/199/199 200/200/200
f 201/201/201 202/202/202 203/203/203
f 204/204/204 205/205/205 206/206/206
f 207/207/207 208/208/208 209/209/209
f 210/210/210 211/211/211 212/212/212
f 213/213/213 214/214/214 215/215/215
f 216/216/216 217/217/217 218/218/218
f 219/219/219 220/220/220 221/221/221
f 222/222/222 223/223/223 224/224/224
f 225/225/225 226/226/226 227/227/227
f 228/228/228 229/229/229 230/230/230
f 231/231/231 232/232/232 233/233/233
f 234/234/234 235/235/235 236/236/236
f 237/237/237 238/238/238 239/239/239
f 240/240/240 241/241/241 242/242/242
f 179/179/179 178/178/178 243/243/243
f 182/182/182 181/181/181 244/244/244
f 185/185/185 184/184/184 245/245/245
f 188/188/188 187/187/187 246/246/246
f 191/191/191 190/190/190 247/247/247
f 194/194/194 193/193/193 248/248/248
f 197/197/197 196/196/196 249/249/249
f 250/250/250 251/251/251 252/252/252
f 250/250/250 252/252/252 253/253/253
f 251/251/251 254/254/254 255/255/255
f 198/198/198 256/256/256 257/257/257
f 250/250/250 254/254/254 251/251/251
f 198/198/198 200/200/200 256/256/256
f 250/250/250 198/198/198 254/254/254
f 200/200/200 199/199/199 258/258/258
f 199/199/199 198/198/198 250/250/250
f 203/203/203 202/202/202 259/259/259
f 260/260/260 206/206/206 261/261/261
f 260/260/260 261/261/261 262/262/262
f 204/204/204 263/263/263 264/264/264
f 204/204/204 264/264/264 205/205/205
f 204/204/204 206/206/206 260/260/260
f 209/209/209 208/208/208 265/265/265
f 212/212/212 211/211/211 266/266/266
f 215/215/215 214/214/214 267/267/267
f 218/218/218 217/217/217 268/268/268
f 269/269/269 220/220/220 270/270/270
f 271/271/271 219/219/219 272/272/272
f 271/271/271 272/272/272 273/273/273
f 221/221/221 220/220/220 269/269/269
f 220/220/220 219/219/219 271/271/271
f 224/224/224 223/223/223 274/274/274
f 227/227/227 226/226/226 275/275/275
f 276/276/276 229/229/229 277/277/277
f 276/276/276 277/277/277 278/278/278
f 230/230/230 279/279/279 280/280/280
f 230/230/230 280/280/280 228/228/228
f 230/230/230 229/229/229 276/276/276
f 233/233/233 232/232/232 281/281/281
f 282/282/282 283/283/283 284/284/284
f 285/285/285 282/282/282 286/286/286
f 285/285/285 286/286/286 287/287/287
f 285/285/285 283/283/283 282/282/282
f 288/288/288 236/236/236 289/289/289
f 236/236/236 283/283/283 285/285/285
f 235/235/235 234/234/234 290/290/290
f 236/236/236 235/235/235 283/283/283
f 234/234/234 236/236/236 288/288/288
f 291/291/291 238/238/238 292/292/292
f 293/293/293 237/237/237 294/294/294
f 293/293/293 294/294/294 295/295/295
f 239/239/239 238/238/238 291/291/291
f 238/238/238 237/237/237 293/293/293
f 242/242/242 241/241/241 296/296/296
