# Exported by ZModeler 2.2.6 (Build 981) with WavefrontOBJ filter (Build 45)
# 

mtllib platform.mtl

v 250 8.23881 -150
v -250 8.23881 -150
v -250 8.23885 150
v 250 8.23885 150
v -250 -8.23885 -150
v 250 -8.23885 -150
v 250 -8.23881 150
v -250 -8.23881 150
v -250 -8.23885 -150
v -250 8.23881 -150
v 250 8.23881 -150
v 250 -8.23885 -150
v 250 -8.23881 150
v 250 8.23885 150
v -250 8.23885 150
v -250 -8.23881 150
v -250 8.23881 -150
v -250 -8.23885 -150
v -250 -8.23881 150
v -250 8.23885 150
v 250 -8.23885 -150
v 250 8.23881 -150
v 250 8.23885 150
v 250 -8.23881 150


vn -0 1 0
vn -0 1 0
vn -0 1 0
vn -0 1 0
vn -0 -1 0
vn -0 -1 0
vn -0 -1 0
vn -0 -1 0
vn -0 0 -1
vn -0 0 -1
vn -0 0 -1
vn -0 0 -1
vn -0 0 1
vn -0 0 1
vn -0 0 1
vn -0 0 1
vn -1 0 0
vn -1 0 0
vn -1 0 0
vn -1 0 0
vn 1 0 0
vn 1 0 0
vn 1 0 0
vn 1 0 0


vt 1.00019 0.0996159
vt 1.00019 0.997049
vt -0.00198221 0.997049
vt -0.00198221 0.0996159
vt 1.00018 0.0996159
vt 1.00018 0.997049
vt -0.00198221 0.997049
vt -0.00198221 0.0996159
vt 0.99916 0.000391185
vt 0.99916 0.0958018
vt 0.000605166 0.0958018
vt 0.000605166 0.000391185
vt 0.000605166 0.000391424
vt 0.000605166 0.0958021
vt 0.99916 0.0958021
vt 0.99916 0.000391424
vt -0.000260055 0.0948074
vt -0.000260055 0.00123501
vt -0.999011 0.00123519
vt -0.999011 0.0948076
vt -0.000259966 0.00123501
vt -0.000259966 0.0948074
vt -0.999011 0.0948076
vt -0.999011 0.00123519


usemtl Material

g platform

f 1/1/1 2/2/2 3/3/3 4/4/4
f 5/5/5 6/6/6 7/7/7 8/8/8
f 9/9/9 10/10/10 11/11/11 12/12/12
f 13/13/13 14/14/14 15/15/15 16/16/16
f 17/17/17 18/18/18 19/19/19 20/20/20
f 21/21/21 22/22/22 23/23/23 24/24/24
