# Blender 3.4.1
# www.blender.org
mtllib speedboost.mtl
o Cube
v 3.440088 0.384711 -3.374363
v 3.507345 -0.301426 -3.441620
v 3.440088 0.384711 3.374363
v 3.507345 -0.301426 3.441620
v -3.440088 0.384711 -3.374363
v -3.507345 -0.301426 -3.441620
v -3.440088 0.384711 3.374363
v -3.507345 -0.301426 3.441620
v -3.507345 -0.301426 -3.159235
v -3.507345 -0.301426 3.159235
v 3.440088 0.384711 -3.226492
v 3.440088 0.384711 3.226492
v -3.440088 0.384711 3.226492
v -3.440088 0.384711 -3.226492
v 3.507345 -0.301426 3.159235
v 3.507345 -0.301426 -3.159235
v 3.507345 0.301426 3.441620
v -3.507345 0.301426 3.441620
v 3.507345 0.301426 3.159235
v -3.507345 0.301426 -3.159235
v -3.507345 0.301426 -3.441620
v 3.507345 0.301426 -3.441620
v 3.507345 0.301426 -3.159235
v -3.507345 0.301426 3.159235
vn -0.0000 1.0000 -0.0000
vn -0.0000 -0.0000 1.0000
vn -1.0000 -0.0000 -0.0000
vn -0.0000 -1.0000 -0.0000
vn 1.0000 -0.0000 -0.0000
vn -0.0000 -0.0000 -1.0000
vn -0.0000 0.6283 0.7780
vn 0.7780 0.6283 -0.0000
vn -0.7780 0.6283 -0.0000
vn -0.0000 0.6283 -0.7780
vt 0.526056 0.966749
vt 0.526052 0.966586
vt 0.526053 0.966786
vt 0.526056 0.966661
vt 0.526053 0.966625
vt 0.526303 0.966586
vt 0.526299 0.966749
vt 0.526052 0.966586
vt 0.526301 0.966586
vt 0.526301 0.966786
vt 0.526299 0.966661
vt 0.526303 0.966586
vt 0.526301 0.966631
vt 0.004176 0.007173
vt 0.526066 0.966586
vt 0.526301 0.966779
vt 0.995824 0.007173
vt 0.526289 0.966586
vt 0.526056 0.966668
vt 0.526056 0.966742
vt 0.526299 0.966742
vt 0.526299 0.966668
vt 0.526053 0.966779
vt 0.526289 0.966586
vt 0.995824 0.995697
vt 0.526053 0.966631
vt 0.004176 0.995697
vt 0.526053 0.966825
vt 0.526303 0.966825
vt 0.526053 0.966625
vt 0.526303 0.966825
vt 0.526301 0.966625
vt 0.526289 0.966825
vt 0.995824 0.995697
vt 0.526053 0.966779
vt 0.526066 0.966825
vt 0.004176 0.007173
vt 0.526301 0.966631
vt 0.526052 0.966825
vt 0.526301 0.966786
vt 0.526053 0.966786
vt 0.526066 0.966825
vt 0.004176 0.995697
vt 0.526053 0.966631
vt 0.995824 0.007173
vt 0.526301 0.966779
s 0
usemtl Material
f 12/20/1 13/21/1 7/11/1 3/4/1
f 4/5/2 17/28/2 18/31/2 8/12/2
f 9/15/3 20/36/3 21/39/3 6/8/3
f 10/16/4 15/23/4 4/5/4 8/12/4
f 15/24/5 19/33/5 17/29/5 4/6/5
f 6/9/6 21/40/6 22/41/6 2/2/6
f 2/2/5 22/41/5 23/42/5 16/26/5
f 16/26/5 23/42/5 19/33/5 15/24/5
f 6/10/4 2/3/4 16/26/4 9/13/4
f 9/14/4 16/27/4 15/25/4 10/17/4
f 8/12/3 18/31/3 24/46/3 10/18/3
f 10/18/3 24/46/3 20/36/3 9/15/3
f 1/1/1 5/7/1 14/22/1 11/19/1
f 23/43/1 20/37/1 24/45/1 19/34/1
f 3/4/7 7/11/7 18/32/7 17/30/7
f 12/20/8 3/4/8 17/30/8 19/35/8
f 14/22/9 5/7/9 21/40/9 20/38/9
f 5/7/10 1/1/10 22/41/10 21/40/10
f 1/1/8 11/19/8 23/44/8 22/41/8
f 7/11/9 13/21/9 24/46/9 18/32/9
f 11/19/7 14/22/7 20/38/7 23/44/7
f 13/21/10 12/20/10 19/35/10 24/46/10
