# Exported by ZModeler 2.2.6 (Build 981) with WavefrontOBJ filter (Build 45)
# 

v 0.228807 -0.000228433 0.000213653
v 0.228807 -0.111496 -0.00951532
v 0.228807 -0.0697232 -0.0890702
v 0.228807 -0.0416294 0.103563
v 0.228807 -0.104384 0.0392507
v 0.228807 0.110413 0.0284276
v 0.228807 0.0875024 0.0720598
v 0.228807 0.00694557 0.111869
v 0.228807 0.0630288 -0.0957593
v 0.228807 0.0974455 -0.0604874
v 0.228807 -0.0255413 -0.110904
v 0.228807 0.0875024 0.0720598
v 0.171058 0.105327 0.0623837
v 0.165118 0.110845 0.156541
v 0.213501 0.0989265 0.164743
v 0.228807 0.00694557 0.111869
v 0.228807 0.0875024 0.0720598
v 0.213501 0.0989265 0.164743
v 0.213501 0.0687227 0.179668
v 0.213501 -0.162354 -0.103027
v 0.165118 -0.153862 -0.114741
v 0.171058 -0.0596543 -0.106694
v 0.228807 -0.0697232 -0.0890702
v 0.228807 -0.0255413 -0.110904
v 0.171058 -0.0464473 -0.113221
v 0.165118 0.000269879 -0.190908
v 0.213501 0.0147338 -0.190538
v 0.228807 -0.104384 0.0392507
v 0.171058 -0.118553 0.0241047
v 0.171058 -0.12068 0.00952657
v 0.228807 -0.111496 -0.00951532
v 0.213501 0.190756 -0.0101453
v 0.228807 0.110413 0.0284276
v 0.228807 0.0974455 -0.0604874
v 0.213501 0.185894 -0.0434833
v 0.213501 0.0687227 0.179668
v 0.165118 0.0549678 0.184154
v 0.171058 -0.0123573 0.120541
v 0.228807 0.00694557 0.111869
v 0.228807 0.0630288 -0.0957593
v 0.228807 -0.0255413 -0.110904
v 0.213501 0.0147338 -0.190538
v 0.213501 0.0479417 -0.18486
v 0.213501 -0.149511 0.122265
v 0.228807 -0.104384 0.0392507
v 0.228807 -0.0416294 0.103563
v 0.213501 -0.125981 0.146378
v 0.228807 0.00694557 0.111869
v 0.171058 -0.0123573 0.120541
v 0.171058 -0.0268784 0.118058
v 0.228807 -0.0416294 0.103563
v 0.228807 -0.0697232 -0.0890702
v 0.228807 -0.111496 -0.00951532
v 0.213501 -0.178016 -0.0731982
v 0.213501 -0.162354 -0.103027
v 0.228807 -0.0416294 0.103563
v 0.171058 -0.0268784 0.118058
v 0.165118 -0.114498 0.155178
v 0.213501 -0.125981 0.146378
v 0.228807 0.0974455 -0.0604874
v 0.171058 0.0932316 -0.0805533
v 0.165118 0.181776 -0.0573533
v 0.213501 0.185894 -0.0434833
v 0.213501 0.190756 -0.0101453
v 0.165118 0.190771 0.00432269
v 0.171058 0.112175 0.0493426
v 0.228807 0.110413 0.0284276
v 0.228807 -0.111496 -0.00951532
v 0.171058 -0.12068 0.00952657
v 0.165118 -0.182837 -0.0595574
v 0.213501 -0.178016 -0.0731982
v 0.228807 0.110413 0.0284276
v 0.171058 0.112175 0.0493426
v 0.171058 0.105327 0.0623837
v 0.228807 0.0875024 0.0720598
v 0.228807 -0.0697232 -0.0890702
v 0.171058 -0.0596543 -0.106694
v 0.171058 -0.0464473 -0.113221
v 0.228807 -0.0255413 -0.110904
v 0.213501 -0.149511 0.122265
v 0.165118 -0.158027 0.110569
v 0.171058 -0.118553 0.0241047
v 0.228807 -0.104384 0.0392507
v 0.228807 0.0630288 -0.0957593
v 0.171058 0.0829439 -0.0910972
v 0.171058 0.0932316 -0.0805533
v 0.228807 0.0974455 -0.0604874
v 0.213501 0.0479417 -0.18486
v 0.165118 0.0617065 -0.180404
v 0.171058 0.0829439 -0.0910972
v 0.228807 0.0630288 -0.0957593
v 0.231785 8.95893e-005 0.325064
v 0.231785 0.0842365 0.313985
v -0.017833 0.0842365 0.313985
v -0.017833 8.95893e-005 0.325064
v 0.231785 0.16265 0.281506
v -0.017833 0.16265 0.281506
v 0.231785 0.229985 0.229838
v -0.017833 0.229985 0.229838
v 0.231785 0.281653 0.162503
v -0.017833 0.281653 0.162503
v 0.231785 0.314133 0.0840897
v -0.017833 0.314133 0.0840897
v 0.231785 0.325211 -5.7341e-005
v -0.017833 0.325211 -5.7341e-005
v 0.231785 0.314133 -0.0842052
v -0.017833 0.314133 -0.0842052
v 0.231785 0.281653 -0.162618
v -0.017833 0.281653 -0.162618
v 0.231785 0.229985 -0.229954
v -0.017833 0.229985 -0.229954
v 0.231785 0.16265 -0.28162
v -0.017833 0.16265 -0.28162
v 0.231785 0.0842366 -0.3141
v -0.017833 0.0842366 -0.3141
v 0.231785 8.96461e-005 -0.325178
v -0.017833 8.96461e-005 -0.325178
v 0.231785 -0.0840573 -0.3141
v -0.017833 -0.0840573 -0.3141
v 0.231785 -0.16247 -0.28162
v -0.017833 -0.16247 -0.28162
v 0.231785 -0.229805 -0.229954
v -0.017833 -0.229805 -0.229954
v 0.231785 -0.281473 -0.162618
v -0.017833 -0.281473 -0.162618
v 0.231785 -0.313953 -0.0842052
v -0.017833 -0.313953 -0.0842052
v 0.231785 -0.325031 -5.73979e-005
v -0.017833 -0.325031 -5.73979e-005
v 0.231785 -0.313953 0.0840897
v -0.017833 -0.313953 0.0840897
v 0.231785 -0.281473 0.162503
v -0.017833 -0.281473 0.162503
v 0.231785 -0.229805 0.229838
v -0.017833 -0.229805 0.229838
v 0.231785 -0.16247 0.281506
v -0.017833 -0.16247 0.281506
v -0.01603 8.96177e-005 -5.73695e-005
v -0.017833 8.96461e-005 -0.325178
v -0.017833 -0.0840573 -0.3141
v 0.231785 -0.0840574 0.313985
v -0.017833 -0.0840574 0.313985
v -0.017833 0.229985 0.229838
v -0.017833 0.281653 0.162503
v 0.231785 -0.12625 -0.126398
v 0.078963 -0.12625 -0.126398
v 0.078963 -0.154645 -0.0893932
v 0.231785 -0.154645 -0.0893932
v -0.017833 -0.229805 0.229838
v -0.017833 -0.16247 0.281506
v 0.231785 0.150657 0.15051
v 0.231785 0.12643 0.126283
v 0.231785 0.154825 0.0892787
v 0.231785 0.184497 0.10641
v 0.231785 8.96363e-005 -0.212992
v 0.231785 8.96333e-005 -0.17873
v 0.231785 -0.0461545 -0.172641
v 0.231785 -0.0550213 -0.205736
v 0.231785 -0.150478 0.15051
v 0.231785 -0.12625 0.126283
v 0.231785 -0.0892463 0.154677
v 0.231785 -0.106377 0.184349
v -0.017833 0.281653 -0.162618
v -0.017833 0.229985 -0.229954
v -0.017833 -0.313953 -0.0842052
v -0.017833 -0.325031 -5.73979e-005
v 0.231785 0.184497 -0.106525
v 0.231785 0.154825 -0.0893941
v 0.231785 0.12643 -0.126398
v 0.231785 0.150657 -0.150625
v 0.231785 -0.205589 -0.0551693
v 0.231785 -0.172494 -0.0463014
v 0.231785 -0.178582 -5.73851e-005
v 0.231785 -0.212845 -5.73881e-005
v -0.017833 0.314133 0.0840897
v -0.017833 -0.16247 -0.28162
v -0.017833 -0.0840574 0.313985
v -0.017833 8.95893e-005 0.325064
v -0.017833 0.0842365 0.313985
v 0.231785 0.172674 0.0461857
v 0.231785 0.205769 0.0550537
v 0.231785 -0.0892463 -0.154792
v 0.231785 -0.106377 -0.184464
v 0.231785 -0.0461545 0.172527
v 0.231785 -0.0550213 0.205622
v 0.231785 8.95991e-005 0.212877
v 0.231785 8.96021e-005 0.178615
v 0.231785 0.0463337 0.172527
v 0.231785 0.0552005 0.205622
v -0.017833 0.16265 -0.28162
v -0.017833 -0.313953 0.0840897
v 0.231785 0.0894255 -0.154792
v 0.231785 0.106557 -0.184464
v 0.231785 -0.172494 0.0461857
v 0.231785 -0.205589 0.0550537
v -0.017833 0.325211 -5.7341e-005
v -0.017833 -0.229805 -0.229954
v 0.231785 0.178762 -5.73538e-005
v 0.231785 0.213024 -5.73508e-005
v 0.231785 -0.12625 -0.126398
v 0.231785 -0.150478 -0.150625
v -0.017833 0.16265 0.281506
v -0.017833 0.0842366 -0.3141
v -0.017833 -0.281473 0.162503
v 0.231785 0.0894255 0.154677
v 0.231785 0.106557 0.184349
v 0.231785 0.0463338 -0.172641
v 0.231785 0.0552006 -0.205736
v 0.231785 -0.154645 0.0892787
v 0.231785 -0.184318 0.10641
v -0.017833 0.314133 -0.0842052
v -0.017833 -0.281473 -0.162618
v 0.231785 0.172674 -0.0463013
v 0.231785 0.205769 -0.0551693
v 0.231785 -0.154645 -0.0893932
v 0.231785 -0.184318 -0.106525
v 0.078963 8.96177e-005 -5.73695e-005
v 0.078963 -0.0892463 0.154677
v 0.078963 -0.12625 0.126283
v 0.231785 0.154825 0.0892787
v 0.078963 0.154825 0.0892787
v 0.078963 0.172674 0.0461857
v 0.231785 0.172674 0.0461857
v 0.231785 -0.172494 0.0461857
v 0.078963 -0.172494 0.0461857
v 0.078963 -0.154645 0.0892787
v 0.231785 -0.154645 0.0892787
v 0.231785 0.154825 -0.0893941
v 0.078963 0.154825 -0.0893941
v 0.078963 0.12643 -0.126398
v 0.231785 0.12643 -0.126398
v 0.231785 -0.0461545 0.172527
v 0.078963 -0.0461545 0.172527
v 0.078963 8.96021e-005 0.178615
v 0.231785 8.96021e-005 0.178615
v 0.231785 8.96333e-005 -0.17873
v 0.078963 8.96333e-005 -0.17873
v 0.078963 -0.0461545 -0.172641
v 0.231785 -0.0461545 -0.172641
v 0.231785 0.0463337 0.172527
v 0.078963 0.0463337 0.172527
v 0.078963 0.0894255 0.154677
v 0.231785 0.0894255 0.154677
v 0.078963 -0.172494 -0.0463014
v 0.231785 -0.172494 -0.0463014
v 0.078963 0.178762 -5.73538e-005
v 0.231785 0.178762 -5.73538e-005
v 0.078963 -0.12625 0.126283
v 0.231785 -0.12625 0.126283
v 0.078963 0.0894255 -0.154792
v 0.231785 0.0894255 -0.154792
v 0.078963 -0.0892463 -0.154792
v 0.231785 -0.0892463 -0.154792
v 0.078963 0.12643 0.126283
v 0.231785 0.12643 0.126283
v 0.078963 -0.178582 -5.73851e-005
v 0.231785 -0.178582 -5.73851e-005
v 0.078963 0.172674 -0.0463013
v 0.231785 0.172674 -0.0463013
v 0.078963 -0.0892463 0.154677
v 0.231785 -0.0892463 0.154677
v 0.078963 0.0463338 -0.172641
v 0.231785 0.0463338 -0.172641
v 0.231785 -0.281473 -0.162618
v 0.231785 -0.184318 -0.106525
v 0.231785 -0.205589 -0.0551693
v 0.231785 -0.313953 -0.0842052
v 0.231785 0.314133 -0.0842052
v 0.231785 0.205769 -0.0551693
v 0.231785 0.184497 -0.106525
v 0.231785 0.281653 -0.162618
v 0.231785 -0.281473 0.162503
v 0.231785 -0.184318 0.10641
v 0.231785 -0.150478 0.15051
v 0.231785 -0.229805 0.229838
v 0.231785 0.0842366 -0.3141
v 0.231785 0.0552006 -0.205736
v 0.231785 8.96363e-005 -0.212992
v 0.231785 8.96461e-005 -0.325178
v 0.231785 0.16265 0.281506
v 0.231785 0.106557 0.184349
v 0.231785 0.150657 0.15051
v 0.231785 0.229985 0.229838
v 0.231785 -0.229805 -0.229954
v 0.231785 -0.150478 -0.150625
v 0.231785 0.325211 -5.7341e-005
v 0.231785 0.213024 -5.73508e-005
v 0.231785 -0.313953 0.0840897
v 0.231785 -0.205589 0.0550537
v 0.231785 0.16265 -0.28162
v 0.231785 0.106557 -0.184464
v 0.231785 0.0842365 0.313985
v 0.231785 0.0552005 0.205622
v 0.231785 -0.0840574 0.313985
v 0.231785 -0.0550213 0.205622
v 0.231785 8.95991e-005 0.212877
v 0.231785 8.95893e-005 0.325064
v 0.231785 -0.16247 -0.28162
v 0.231785 -0.106377 -0.184464
v 0.231785 0.314133 0.0840897
v 0.231785 0.205769 0.0550537
v 0.231785 -0.325031 -5.73979e-005
v 0.231785 -0.212845 -5.73881e-005
v 0.231785 0.229985 -0.229954
v 0.231785 0.150657 -0.150625
v 0.231785 -0.16247 0.281506
v 0.231785 -0.106377 0.184349
v 0.231785 -0.0840573 -0.3141
v 0.231785 -0.0550213 -0.205736
v 0.231785 0.281653 0.162503
v 0.231785 0.184497 0.10641
v 0.078963 -0.12625 -0.126398
v 0.078963 -0.0892463 -0.154792
v 0.078963 0.154825 -0.0893941
v 0.078963 0.172674 -0.0463013
v 0.078963 -0.0461545 0.172527
v 0.078963 0.0463337 0.172527
v 0.078963 8.96021e-005 0.178615
v 0.078963 -0.154645 -0.0893932
v 0.078963 0.12643 -0.126398
v 0.078963 0.0894255 0.154677
v 0.078963 -0.172494 -0.0463014
v 0.078963 0.0894255 -0.154792
v 0.078963 0.12643 0.126283
v 0.078963 -0.178582 -5.73851e-005
v 0.078963 0.0463338 -0.172641
v 0.078963 0.154825 0.0892787
v 0.078963 -0.172494 0.0461857
v 0.078963 8.96333e-005 -0.17873
v 0.078963 0.172674 0.0461857
v 0.078963 -0.154645 0.0892787
v 0.078963 -0.0461545 -0.172641
v 0.078963 0.178762 -5.73538e-005


vn 1 0 0
vn 1 0 0
vn 1 0 0
vn 1 0 0
vn 1 0 0
vn 1 0 0
vn 1 0 0
vn 1 0 0
vn 1 0 0
vn 1 0 0
vn 1 0 0
vn 0.2781 0.959 -0.0552999
vn 0.2781 0.959 -0.0552999
vn 0.2781 0.959 -0.0552999
vn 0.2781 0.959 -0.0552999
vn 0.9853 0.0758 0.1534
vn 0.9853 0.0758 0.1534
vn 0.9853 0.0758 0.1534
vn 0.9853 0.0758 0.1534
vn 0.2787 0.0810001 -0.957
vn 0.2787 0.0810001 -0.957
vn 0.2787 0.0810001 -0.957
vn 0.2787 0.0810001 -0.957
vn 0.2863 -0.8216 -0.493
vn 0.2863 -0.8216 -0.493
vn 0.2863 -0.8216 -0.493
vn 0.2863 -0.8216 -0.493
vn 0.2008 -0.9694 0.1414
vn 0.2008 -0.9694 0.1414
vn 0.2008 -0.9694 0.1414
vn 0.2008 -0.9694 0.1414
vn 0.9842 0.1752 -0.0256
vn 0.9842 0.1752 -0.0256
vn 0.9842 0.1752 -0.0256
vn 0.9842 0.1752 -0.0256
vn 0.2911 -0.6585 0.694
vn 0.2911 -0.6585 0.694
vn 0.2911 -0.6585 0.694
vn 0.2911 -0.6585 0.694
vn 0.9843 0.0298 -0.1741
vn 0.9843 0.0298 -0.1741
vn 0.9843 0.0298 -0.1741
vn 0.9843 0.0298 -0.1741
vn 0.9859 -0.1196 0.1167
vn 0.9859 -0.1196 0.1167
vn 0.9859 -0.1196 0.1167
vn 0.9859 -0.1196 0.1167
vn 0.2002 -0.1651 0.9657
vn 0.2002 -0.1651 0.9657
vn 0.2002 -0.1651 0.9657
vn 0.2002 -0.1651 0.9657
vn 0.9854 -0.1509 -0.0792
vn 0.9854 -0.1509 -0.0792
vn 0.9854 -0.1509 -0.0792
vn 0.9854 -0.1509 -0.0792
vn 0.2862 0.3746 0.8819
vn 0.2862 0.3746 0.8819
vn 0.2862 0.3746 0.8819
vn 0.2862 0.3746 0.8819
vn 0.2779 0.2444 -0.929
vn 0.2779 0.2444 -0.929
vn 0.2779 0.2444 -0.929
vn 0.2779 0.2444 -0.929
vn 0.2853 0.4757 0.832
vn 0.2853 0.4757 0.832
vn 0.2853 0.4757 0.832
vn 0.2853 0.4757 0.832
vn 0.2912 -0.7098 0.6414
vn 0.2912 -0.7098 0.6414
vn 0.2912 -0.7098 0.6414
vn 0.2912 -0.7098 0.6414
vn 0.1918 0.8689 0.4563
vn 0.1918 0.8689 0.4563
vn 0.1918 0.8689 0.4563
vn 0.1918 0.8689 0.4563
vn 0.1927 -0.4347 -0.8797
vn 0.1927 -0.4347 -0.8797
vn 0.1927 -0.4347 -0.8797
vn 0.1927 -0.4347 -0.8797
vn 0.287 -0.871 -0.3988
vn 0.287 -0.871 -0.3988
vn 0.287 -0.871 -0.3988
vn 0.287 -0.871 -0.3988
vn 0.1871 0.7031 -0.6861
vn 0.1871 0.7031 -0.6861
vn 0.1871 0.7031 -0.6861
vn 0.1871 0.7031 -0.6861
vn 0.2774 0.9345 -0.2233
vn 0.2774 0.9345 -0.2233
vn 0.2774 0.9345 -0.2233
vn 0.2774 0.9345 -0.2233
vn -0 -8.74228e-008 1
vn -0 0.2588 0.9659
vn -0 0.2588 0.9659
vn -0 -8.74228e-008 1
vn -0 0.5 0.866
vn -0 0.5 0.866
vn -0 0.7071 0.7071
vn -0 0.7071 0.7071
vn -0 0.866 0.5
vn -0 0.866 0.5
vn -0 0.9659 0.2588
vn -0 0.9659 0.2588
vn -0 1 8.74228e-008
vn -0 1 8.74228e-008
vn -0 0.9659 -0.2588
vn -0 0.9659 -0.2588
vn -0 0.866 -0.5
vn -0 0.866 -0.5
vn -0 0.7071 -0.7071
vn -0 0.7071 -0.7071
vn -0 0.5 -0.866
vn -0 0.5 -0.866
vn -0 0.2588 -0.9659
vn -0 0.2588 -0.9659
vn -0 8.74228e-008 -1
vn -0 8.74228e-008 -1
vn -0 -0.2588 -0.9659
vn -0 -0.2588 -0.9659
vn -0 -0.5 -0.866
vn -0 -0.5 -0.866
vn -0 -0.7071 -0.7071
vn -0 -0.7071 -0.7071
vn -0 -0.866 -0.5
vn -0 -0.866 -0.5
vn -0 -0.9659 -0.2588
vn -0 -0.9659 -0.2588
vn -0 -1 -8.74228e-008
vn -0 -1 -8.74228e-008
vn -0 -0.9659 0.2588
vn -0 -0.9659 0.2588
vn -0 -0.866 0.5
vn -0 -0.866 0.5
vn -0 -0.7071 0.7071
vn -0 -0.7071 0.7071
vn -0 -0.5 0.866
vn -0 -0.5 0.866
vn -1 0 0
vn -1 -4.80825e-010 0.0055
vn -1 0.0014 0.0054
vn -0 -0.2588 0.9659
vn -0 -0.2588 0.9659
vn -1 -0.0039 -0.0039
vn -1 -0.0048 -0.0028
vn -0 0.7071 0.7071
vn -0 0.7071 0.7071
vn -0 0.866 0.5
vn -0 0.866 0.5
vn -1 0.0039 -0.0039
vn -1 0.0028 -0.0048
vn 1 0 0
vn 1 0 0
vn 1 0 0
vn 1 0 0
vn 1 0 0
vn 1 0 0
vn 1 0 0
vn 1 0 0
vn 1 0 0
vn 1 0 0
vn 1 0 0
vn 1 0 0
vn -1 -0.0048 0.0028
vn -1 -0.0039 0.0039
vn -1 0.0054 0.0014
vn -1 0.0055 4.80825e-010
vn 1 0 0
vn 1 0 0
vn 1 0 0
vn 1 0 0
vn 1 0 0
vn 1 0 0
vn 1 0 0
vn 1 0 0
vn -1 -0.0054 -0.0014
vn -1 0.0028 0.0048
vn -1 0.0014 -0.0054
vn -1 4.80825e-010 -0.0055
vn -1 -0.0014 -0.0054
vn 1 0 0
vn 1 0 0
vn 1 0 0
vn 1 0 0
vn 1 0 0
vn 1 0 0
vn 1 0 0
vn 1 0 0
vn 1 0 0
vn 1 0 0
vn -1 -0.0028 0.0048
vn -1 0.0054 -0.0014
vn 1 0 0
vn 1 0 0
vn 1 0 0
vn 1 0 0
vn -1 -0.0055 -4.80825e-010
vn -1 0.0039 0.0039
vn 1 0 0
vn 1 0 0
vn 1 0 0
vn 1 0 0
vn -1 -0.0028 -0.0048
vn -1 -0.0014 0.0054
vn -1 0.0048 -0.0028
vn 1 0 0
vn 1 0 0
vn 1 0 0
vn 1 0 0
vn 1 0 0
vn 1 0 0
vn -1 -0.0054 0.0014
vn -1 0.0048 0.0028
vn 1 0 0
vn 1 0 0
vn 1 0 0
vn 1 0 0
vn 1 0 0
vn 1 0 0
vn 1 0 0
vn -0 -0.866 -0.5
vn -0 -0.866 -0.5
vn -0 -0.9659 -0.2588
vn -0 -0.9659 -0.2588
vn -0 0.9659 -0.2588
vn -0 0.9659 -0.2588
vn -0 0.866 -0.5
vn -0 0.866 -0.5
vn -0 -0.866 0.5
vn -0 -0.866 0.5
vn -0 -0.7071 0.7071
vn -0 -0.7071 0.7071
vn -0 0.2588 -0.9659
vn -0 0.2588 -0.9659
vn -0 8.74228e-008 -1
vn -0 8.74228e-008 -1
vn -0 -8.74228e-008 1
vn -0 -8.74228e-008 1
vn -0 0.2588 0.9659
vn -0 0.2588 0.9659
vn -0 -0.2588 -0.9659
vn -0 -0.2588 -0.9659
vn -0 -0.5 -0.866
vn -0 -0.5 -0.866
vn -0 0.9659 0.2588
vn -0 0.9659 0.2588
vn -0 -1 -8.74228e-008
vn -0 -1 -8.74228e-008
vn -0 0.7071 -0.7071
vn -0 0.7071 -0.7071
vn -0 -0.5 0.866
vn -0 -0.5 0.866
vn -0 0.5 0.866
vn -0 0.5 0.866
vn -0 -0.7071 -0.7071
vn -0 -0.7071 -0.7071
vn -0 1 8.74228e-008
vn -0 1 8.74228e-008
vn -0 -0.9659 0.2588
vn -0 -0.9659 0.2588
vn -0 0.5 -0.866
vn -0 0.5 -0.866
vn -0 -0.2588 0.9659
vn -0 -0.2588 0.9659
vn 1 0 0
vn 1 0 0
vn 1 0 0
vn 1 0 0
vn 1 0 0
vn 1 0 0
vn 1 0 0
vn 1 0 0
vn 1 0 0
vn 1 0 0
vn 1 0 0
vn 1 0 0
vn 1 0 0
vn 1 0 0
vn 1 0 0
vn 1 0 0
vn 1 0 0
vn 1 0 0
vn 1 0 0
vn 1 0 0
vn 1 0 0
vn 1 0 0
vn 1 0 0
vn 1 0 0
vn 1 0 0
vn 1 0 0
vn 1 0 0
vn 1 0 0
vn 1 0 0
vn 1 0 0
vn 1 0 0
vn 1 0 0
vn 1 0 0
vn 1 0 0
vn 1 0 0
vn 1 0 0
vn 1 0 0
vn 1 0 0
vn 1 0 0
vn 1 0 0
vn 1 0 0
vn 1 0 0
vn 1 0 0
vn 1 0 0
vn 1 0 0
vn 1 0 0
vn 1 0 0
vn 1 0 0
vn 1 0 0
vn 1 0 0
vn 1 0 0
vn 1 0 0
vn 1 0 0
vn 1 0 0
vn 1 0 0
vn 1 0 0
vn 1 0 0
vn 1 0 0
vn 1 0 0
vn 1 0 0
vn 1 0 0
vn 1 0 0
vn 1 0 0
vn 1 0 0
vn 1 0 0
vn 1 0 0
vn 1 0 0
vn 1 0 0
vn 1 0 0
vn 1 0 0


vt 0.157998 0.926266
vt 0.157998 0.926266
vt 0.157998 0.926266
vt 0.157998 0.926266
vt 0.157998 0.926266
vt 0.157998 0.926266
vt 0.157998 0.926266
vt 0.157998 0.926266
vt 0.157998 0.926266
vt 0.157998 0.926266
vt 0.157998 0.926266
vt 0.157998 0.926266
vt 0.157998 0.926266
vt 0.157998 0.926266
vt 0.157998 0.926266
vt 0.157998 0.926266
vt 0.157998 0.926266
vt 0.157998 0.926266
vt 0.157998 0.926266
vt 0.157998 0.926266
vt 0.157998 0.926266
vt 0.157998 0.926266
vt 0.157998 0.926266
vt 0.157998 0.926266
vt 0.157998 0.926266
vt 0.157998 0.926266
vt 0.157998 0.926266
vt 0.157998 0.926266
vt 0.157998 0.926266
vt 0.157998 0.926266
vt 0.157998 0.926266
vt 0.157998 0.926266
vt 0.157998 0.926266
vt 0.157998 0.926266
vt 0.157998 0.926266
vt 0.157998 0.926266
vt 0.157998 0.926266
vt 0.157998 0.926266
vt 0.157998 0.926266
vt 0.157998 0.926266
vt 0.157998 0.926266
vt 0.157998 0.926266
vt 0.157998 0.926266
vt 0.157998 0.926266
vt 0.157998 0.926266
vt 0.157998 0.926266
vt 0.157998 0.926266
vt 0.157998 0.926266
vt 0.157998 0.926266
vt 0.157998 0.926266
vt 0.157998 0.926266
vt 0.157998 0.926266
vt 0.157998 0.926266
vt 0.157998 0.926266
vt 0.157998 0.926266
vt 0.157998 0.926266
vt 0.157998 0.926266
vt 0.157998 0.926266
vt 0.157998 0.926266
vt 0.157998 0.926266
vt 0.157998 0.926266
vt 0.157998 0.926266
vt 0.157998 0.926266
vt 0.157998 0.926266
vt 0.157998 0.926266
vt 0.157998 0.926266
vt 0.157998 0.926266
vt 0.157998 0.926266
vt 0.157998 0.926266
vt 0.157998 0.926266
vt 0.157998 0.926266
vt 0.157998 0.926266
vt 0.157998 0.926266
vt 0.157998 0.926266
vt 0.157998 0.926266
vt 0.157998 0.926266
vt 0.157998 0.926266
vt 0.157998 0.926266
vt 0.157998 0.926266
vt 0.157998 0.926266
vt 0.157998 0.926266
vt 0.157998 0.926266
vt 0.157998 0.926266
vt 0.157998 0.926266
vt 0.157998 0.926266
vt 0.157998 0.926266
vt 0.157998 0.926266
vt 0.157998 0.926266
vt 0.157998 0.926266
vt 0.157998 0.926266
vt 0.157998 0.926266
vt 0.103011 0.959979
vt 0.103011 0.959979
vt 0.103011 0.959979
vt 0.103011 0.959979
vt 0.103011 0.959979
vt 0.103011 0.959979
vt 0.103011 0.959979
vt 0.103011 0.959979
vt 0.103011 0.959979
vt 0.103011 0.959979
vt 0.103011 0.959979
vt 0.103011 0.959979
vt 0.103011 0.959979
vt 0.103011 0.959979
vt 0.103011 0.959979
vt 0.103011 0.959979
vt 0.103011 0.959979
vt 0.103011 0.959979
vt 0.103011 0.959979
vt 0.103011 0.959979
vt 0.103011 0.959979
vt 0.103011 0.959979
vt 0.103011 0.959979
vt 0.103011 0.959979
vt 0.103011 0.959979
vt 0.103011 0.959979
vt 0.103011 0.959979
vt 0.103011 0.959979
vt 0.103011 0.959979
vt 0.103011 0.959979
vt 0.103011 0.959979
vt 0.103011 0.959979
vt 0.103011 0.959979
vt 0.103011 0.959979
vt 0.103011 0.959979
vt 0.103011 0.959979
vt 0.103011 0.959979
vt 0.103011 0.959979
vt 0.103011 0.959979
vt 0.103011 0.959979
vt 0.103011 0.959979
vt 0.103011 0.959979
vt 0.103011 0.959979
vt 0.103011 0.959979
vt 0.103011 0.959979
vt 0.103011 0.959979
vt 0.103011 0.959979
vt 0.103011 0.959979
vt 0.103011 0.959979
vt 0.103011 0.959979
vt 0.103011 0.959979
vt 0.103011 0.959979
vt 0.103011 0.959979
vt 0.157998 0.926266
vt 0.157998 0.926266
vt 0.157998 0.926266
vt 0.157998 0.926266
vt 0.103011 0.959979
vt 0.103011 0.959979
vt 0.157998 0.926266
vt 0.157998 0.926266
vt 0.157998 0.926266
vt 0.157998 0.926266
vt 0.157998 0.926266
vt 0.157998 0.926266
vt 0.157998 0.926266
vt 0.157998 0.926266
vt 0.157998 0.926266
vt 0.157998 0.926266
vt 0.157998 0.926266
vt 0.157998 0.926266
vt 0.103011 0.959979
vt 0.103011 0.959979
vt 0.103011 0.959979
vt 0.103011 0.959979
vt 0.157998 0.926266
vt 0.157998 0.926266
vt 0.157998 0.926266
vt 0.157998 0.926266
vt 0.157998 0.926266
vt 0.157998 0.926266
vt 0.157998 0.926266
vt 0.157998 0.926266
vt 0.103011 0.959979
vt 0.103011 0.959979
vt 0.103011 0.959979
vt 0.103011 0.959979
vt 0.103011 0.959979
vt 0.157998 0.926266
vt 0.157998 0.926266
vt 0.157998 0.926266
vt 0.157998 0.926266
vt 0.157998 0.926266
vt 0.157998 0.926266
vt 0.157998 0.926266
vt 0.157998 0.926266
vt 0.157998 0.926266
vt 0.157998 0.926266
vt 0.103011 0.959979
vt 0.103011 0.959979
vt 0.157998 0.926266
vt 0.157998 0.926266
vt 0.157998 0.926266
vt 0.157998 0.926266
vt 0.103011 0.959979
vt 0.103011 0.959979
vt 0.157998 0.926266
vt 0.157998 0.926266
vt 0.157998 0.926266
vt 0.157998 0.926266
vt 0.103011 0.959979
vt 0.103011 0.959979
vt 0.103011 0.959979
vt 0.157998 0.926266
vt 0.157998 0.926266
vt 0.157998 0.926266
vt 0.157998 0.926266
vt 0.157998 0.926266
vt 0.157998 0.926266
vt 0.103011 0.959979
vt 0.103011 0.959979
vt 0.157998 0.926266
vt 0.157998 0.926266
vt 0.157998 0.926266
vt 0.157998 0.926266
vt 0.103011 0.959979
vt 0.103011 0.959979
vt 0.103011 0.959979
vt 0.157998 0.926266
vt 0.157998 0.926266
vt 0.157998 0.926266
vt 0.157998 0.926266
vt 0.157998 0.926266
vt 0.157998 0.926266
vt 0.157998 0.926266
vt 0.157998 0.926266
vt 0.157998 0.926266
vt 0.157998 0.926266
vt 0.157998 0.926266
vt 0.157998 0.926266
vt 0.157998 0.926266
vt 0.157998 0.926266
vt 0.157998 0.926266
vt 0.157998 0.926266
vt 0.157998 0.926266
vt 0.157998 0.926266
vt 0.157998 0.926266
vt 0.157998 0.926266
vt 0.157998 0.926266
vt 0.157998 0.926266
vt 0.157998 0.926266
vt 0.157998 0.926266
vt 0.157998 0.926266
vt 0.157998 0.926266
vt 0.157998 0.926266
vt 0.157998 0.926266
vt 0.157998 0.926266
vt 0.157998 0.926266
vt 0.157998 0.926266
vt 0.157998 0.926266
vt 0.157998 0.926266
vt 0.157998 0.926266
vt 0.157998 0.926266
vt 0.157998 0.926266
vt 0.157998 0.926266
vt 0.157998 0.926266
vt 0.157998 0.926266
vt 0.157998 0.926266
vt 0.157998 0.926266
vt 0.157998 0.926266
vt 0.157998 0.926266
vt 0.157998 0.926266
vt 0.103011 0.959979
vt 0.103011 0.959979
vt 0.103011 0.959979
vt 0.103011 0.959979
vt 0.103011 0.959979
vt 0.103011 0.959979
vt 0.103011 0.959979
vt 0.103011 0.959979
vt 0.103011 0.959979
vt 0.103011 0.959979
vt 0.103011 0.959979
vt 0.103011 0.959979
vt 0.103011 0.959979
vt 0.103011 0.959979
vt 0.103011 0.959979
vt 0.103011 0.959979
vt 0.103011 0.959979
vt 0.103011 0.959979
vt 0.103011 0.959979
vt 0.103011 0.959979
vt 0.103011 0.959979
vt 0.103011 0.959979
vt 0.103011 0.959979
vt 0.103011 0.959979
vt 0.103011 0.959979
vt 0.103011 0.959979
vt 0.103011 0.959979
vt 0.103011 0.959979
vt 0.103011 0.959979
vt 0.103011 0.959979
vt 0.103011 0.959979
vt 0.103011 0.959979
vt 0.103011 0.959979
vt 0.103011 0.959979
vt 0.103011 0.959979
vt 0.103011 0.959979
vt 0.103011 0.959979
vt 0.103011 0.959979
vt 0.103011 0.959979
vt 0.103011 0.959979
vt 0.103011 0.959979
vt 0.103011 0.959979
vt 0.103011 0.959979
vt 0.103011 0.959979
vt 0.103011 0.959979
vt 0.103011 0.959979
vt 0.103011 0.959979
vt 0.103011 0.959979
vt 0.103011 0.959979
vt 0.103011 0.959979
vt 0.103011 0.959979
vt 0.103011 0.959979
vt 0.103011 0.959979
vt 0.103011 0.959979
vt 0.103011 0.959979
vt 0.103011 0.959979
vt 0.103011 0.959979
vt 0.103011 0.959979
vt 0.103011 0.959979
vt 0.103011 0.959979
vt 0.103011 0.959979
vt 0.103011 0.959979
vt 0.103011 0.959979
vt 0.103011 0.959979
vt 0.103011 0.959979
vt 0.103011 0.959979
vt 0.103011 0.959979
vt 0.103011 0.959979
vt 0.103011 0.959979
vt 0.103011 0.959979


g wheel01

f 1/1/1 2/2/2 3/3/3
f 1/1/1 4/4/4 5/5/5
f 1/1/1 6/6/6 7/7/7
f 1/1/1 8/8/8 4/4/4
f 1/1/1 9/9/9 10/10/10
f 1/1/1 5/5/5 2/2/2
f 1/1/1 7/7/7 8/8/8
f 1/1/1 3/3/3 11/11/11
f 1/1/1 10/10/10 6/6/6
f 1/1/1 11/11/11 9/9/9
f 12/12/12 13/13/13 14/14/14 15/15/15
f 16/16/16 17/17/17 18/18/18 19/19/19
f 20/20/20 21/21/21 22/22/22 23/23/23
f 24/24/24 25/25/25 26/26/26 27/27/27
f 28/28/28 29/29/29 30/30/30 31/31/31
f 32/32/32 33/33/33 34/34/34 35/35/35
f 36/36/36 37/37/37 38/38/38 39/39/39
f 40/40/40 41/41/41 42/42/42 43/43/43
f 44/44/44 45/45/45 46/46/46 47/47/47
f 48/48/48 49/49/49 50/50/50 51/51/51
f 52/52/52 53/53/53 54/54/54 55/55/55
f 56/56/56 57/57/57 58/58/58 59/59/59
f 60/60/60 61/61/61 62/62/62 63/63/63
f 64/64/64 65/65/65 66/66/66 67/67/67
f 68/68/68 69/69/69 70/70/70 71/71/71
f 72/72/72 73/73/73 74/74/74 75/75/75
f 76/76/76 77/77/77 78/78/78 79/79/79
f 80/80/80 81/81/81 82/82/82 83/83/83
f 84/84/84 85/85/85 86/86/86 87/87/87
f 88/88/88 89/89/89 90/90/90 91/91/91
f 92/92/92 93/93/93 94/94/94 95/95/95
f 93/93/93 96/96/96 97/97/97 94/94/94
f 96/96/96 98/98/98 99/99/99 97/97/97
f 98/98/98 100/100/100 101/101/101 99/99/99
f 100/100/100 102/102/102 103/103/103 101/101/101
f 102/102/102 104/104/104 105/105/105 103/103/103
f 104/104/104 106/106/106 107/107/107 105/105/105
f 106/106/106 108/108/108 109/109/109 107/107/107
f 108/108/108 110/110/110 111/111/111 109/109/109
f 110/110/110 112/112/112 113/113/113 111/111/111
f 112/112/112 114/114/114 115/115/115 113/113/113
f 114/114/114 116/116/116 117/117/117 115/115/115
f 116/116/116 118/118/118 119/119/119 117/117/117
f 118/118/118 120/120/120 121/121/121 119/119/119
f 120/120/120 122/122/122 123/123/123 121/121/121
f 122/122/122 124/124/124 125/125/125 123/123/123
f 124/124/124 126/126/126 127/127/127 125/125/125
f 126/126/126 128/128/128 129/129/129 127/127/127
f 128/128/128 130/130/130 131/131/131 129/129/129
f 130/130/130 132/132/132 133/133/133 131/131/131
f 132/132/132 134/134/134 135/135/135 133/133/133
f 134/134/134 136/136/136 137/137/137 135/135/135
f 138/138/138 139/139/139 140/140/140
f 136/136/136 141/141/141 142/142/142 137/137/137
f 141/141/141 92/92/92 95/95/95 142/142/142
f 138/138/138 143/143/143 144/144/144
f 145/145/145 146/146/146 147/147/147 148/148/148
f 138/138/138 149/149/149 150/150/150
f 151/151/151 152/152/152 153/153/153 154/154/154
f 155/155/155 156/156/156 157/157/157 158/158/158
f 159/159/159 160/160/160 161/161/161 162/162/162
f 138/138/138 163/163/163 164/164/164
f 138/138/138 165/165/165 166/166/166
f 167/167/167 168/168/168 169/169/169 170/170/170
f 171/171/171 172/172/172 173/173/173 174/174/174
f 138/138/138 144/144/144 175/175/175
f 138/138/138 140/140/140 176/176/176
f 138/138/138 150/150/150 177/177/177
f 138/138/138 178/178/178 179/179/179
f 154/154/154 153/153/153 180/180/180 181/181/181
f 158/158/158 157/157/157 182/182/182 183/183/183
f 162/162/162 161/161/161 184/184/184 185/185/185
f 186/186/186 187/187/187 188/188/188 189/189/189
f 138/138/138 164/164/164 190/190/190
f 138/138/138 166/166/166 191/191/191
f 170/170/170 169/169/169 192/192/192 193/193/193
f 174/174/174 173/173/173 194/194/194 195/195/195
f 138/138/138 175/175/175 196/196/196
f 138/138/138 176/176/176 197/197/197
f 138/138/138 177/177/177 178/178/178
f 181/181/181 180/180/180 198/198/198 199/199/199
f 183/183/183 182/182/182 200/200/200 201/201/201
f 185/185/185 184/184/184 187/187/187 186/186/186
f 138/138/138 179/179/179 202/202/202
f 138/138/138 190/190/190 203/203/203
f 138/138/138 191/191/191 204/204/204
f 189/189/189 188/188/188 205/205/205 206/206/206
f 193/193/193 192/192/192 207/207/207 208/208/208
f 195/195/195 194/194/194 209/209/209 210/210/210
f 138/138/138 196/196/196 211/211/211
f 138/138/138 197/197/197 212/212/212
f 199/199/199 198/198/198 213/213/213 214/214/214
f 201/201/201 200/200/200 215/215/215 216/216/216
f 138/138/138 202/202/202 143/143/143
f 138/138/138 203/203/203 139/139/139
f 138/138/138 204/204/204 149/149/149
f 206/206/206 205/205/205 152/152/152 151/151/151
f 208/208/208 207/207/207 156/156/156 155/155/155
f 210/210/210 209/209/209 160/160/160 159/159/159
f 138/138/138 211/211/211 163/163/163
f 138/138/138 212/212/212 165/165/165
f 214/214/214 213/213/213 168/168/168 167/167/167
f 216/216/216 215/215/215 172/172/172 171/171/171
f 217/217/217 218/218/218 219/219/219
f 220/220/220 221/221/221 222/222/222 223/223/223
f 224/224/224 225/225/225 226/226/226 227/227/227
f 228/228/228 229/229/229 230/230/230 231/231/231
f 232/232/232 233/233/233 234/234/234 235/235/235
f 236/236/236 237/237/237 238/238/238 239/239/239
f 240/240/240 241/241/241 242/242/242 243/243/243
f 148/148/148 147/147/147 244/244/244 245/245/245
f 223/223/223 222/222/222 246/246/246 247/247/247
f 227/227/227 226/226/226 248/248/248 249/249/249
f 231/231/231 230/230/230 250/250/250 251/251/251
f 239/239/239 238/238/238 252/252/252 253/253/253
f 243/243/243 242/242/242 254/254/254 255/255/255
f 245/245/245 244/244/244 256/256/256 257/257/257
f 247/247/247 246/246/246 258/258/258 259/259/259
f 249/249/249 248/248/248 260/260/260 261/261/261
f 251/251/251 250/250/250 262/262/262 263/263/263
f 253/253/253 252/252/252 146/146/146 145/145/145
f 255/255/255 254/254/254 221/221/221 220/220/220
f 257/257/257 256/256/256 225/225/225 224/224/224
f 259/259/259 258/258/258 229/229/229 228/228/228
f 261/261/261 260/260/260 233/233/233 232/232/232
f 263/263/263 262/262/262 237/237/237 236/236/236
f 235/235/235 234/234/234 241/241/241 240/240/240
f 264/264/264 265/265/265 266/266/266 267/267/267
f 268/268/268 269/269/269 270/270/270 271/271/271
f 272/272/272 273/273/273 274/274/274 275/275/275
f 276/276/276 277/277/277 278/278/278 279/279/279
f 280/280/280 281/281/281 282/282/282 283/283/283
f 284/284/284 285/285/285 265/265/265 264/264/264
f 286/286/286 287/287/287 269/269/269 268/268/268
f 288/288/288 289/289/289 273/273/273 272/272/272
f 290/290/290 291/291/291 277/277/277 276/276/276
f 292/292/292 293/293/293 281/281/281 280/280/280
f 294/294/294 295/295/295 296/296/296 297/297/297
f 298/298/298 299/299/299 285/285/285 284/284/284
f 300/300/300 301/301/301 287/287/287 286/286/286
f 302/302/302 303/303/303 289/289/289 288/288/288
f 304/304/304 305/305/305 291/291/291 290/290/290
f 297/297/297 296/296/296 293/293/293 292/292/292
f 306/306/306 307/307/307 295/295/295 294/294/294
f 308/308/308 309/309/309 299/299/299 298/298/298
f 310/310/310 311/311/311 301/301/301 300/300/300
f 267/267/267 266/266/266 303/303/303 302/302/302
f 271/271/271 270/270/270 305/305/305 304/304/304
f 275/275/275 274/274/274 307/307/307 306/306/306
f 279/279/279 278/278/278 309/309/309 308/308/308
f 283/283/283 282/282/282 311/311/311 310/310/310
f 217/217/217 312/312/312 313/313/313
f 217/217/217 314/314/314 315/315/315
f 217/217/217 316/316/316 218/218/218
f 217/217/217 317/317/317 318/318/318
f 217/217/217 319/319/319 312/312/312
f 217/217/217 320/320/320 314/314/314
f 217/217/217 318/318/318 316/316/316
f 217/217/217 321/321/321 317/317/317
f 217/217/217 322/322/322 319/319/319
f 217/217/217 323/323/323 320/320/320
f 217/217/217 324/324/324 321/321/321
f 217/217/217 325/325/325 322/322/322
f 217/217/217 326/326/326 323/323/323
f 217/217/217 327/327/327 324/324/324
f 217/217/217 328/328/328 325/325/325
f 217/217/217 329/329/329 326/326/326
f 217/217/217 330/330/330 327/327/327
f 217/217/217 331/331/331 328/328/328
f 217/217/217 332/332/332 329/329/329
f 217/217/217 333/333/333 330/330/330
f 217/217/217 219/219/219 331/331/331
f 217/217/217 313/313/313 332/332/332
f 217/217/217 315/315/315 333/333/333
