# Exported by ZModeler 2.2.6 (Build 981) with WavefrontOBJ filter (Build 45)
# 

mtllib finish.mtl

v 0.000809359 2.93176 0.467965
v 0.000809239 2.85371 0.432465
v 1.42703 2.82628 0.432465
v 1.48383 2.9063 0.467965
v 0.000809359 3.16178 -0.432465
v 0.000809359 3.22211 -0.375279
v 1.71117 3.2122 -0.375279
v 1.66022 3.14042 -0.432465
v 0.000809239 2.77346 0.375279
v 1.37608 2.75449 0.375279
v 0.000809359 3.27914 -0.299275
v 1.75372 3.27215 -0.299275
v 0.000809239 2.71342 0.299275
v 1.33353 2.69455 0.299275
v 0.000809359 3.33334 -0.208264
v 1.78574 3.32026 -0.208264
v 0.000809841 2.67423 0.208264
v 1.30152 2.64944 0.208264
v 0.000809359 3.36698 -0.10681
v 1.80561 3.35426 -0.10681
v 0.000809359 2.64058 0.10681
v 1.28164 2.62144 0.10681
v 0.000809239 3.37839 0
v 1.81235 3.36375 0
v 0.000809841 2.62918 0
v 1.27491 2.61195 0
v 0.000809359 3.36698 0.10681
v 1.80561 3.35426 0.10681
v 0.000809359 2.64058 -0.10681
v 1.28164 2.62144 -0.10681
v 0.000809359 3.33334 0.208264
v 1.78574 3.32026 0.208264
v 0.000809841 2.67423 -0.208264
v 1.30152 2.64944 -0.208264
v 0.000809359 3.27914 0.299275
v 1.75372 3.27215 0.299275
v 0.000809239 2.71342 -0.299275
v 1.33353 2.69455 -0.299275
v 0.000809359 3.22211 0.375279
v 1.71117 3.2122 0.375279
v 1.75372 3.27215 0.299275
v 0.000809239 2.77346 -0.375279
v 1.37608 2.75449 -0.375279
v 0.000809359 3.16178 0.432465
v 1.66022 3.14042 0.432465
v 0.000809239 2.85371 -0.432465
v 1.42703 2.82628 -0.432465
v 0.000809841 3.08941 0.467965
v 1.60342 3.06039 0.467965
v 0.000809359 2.93176 -0.467965
v 1.48383 2.9063 -0.467965
v 0.000809239 3.01111 0.48
v 1.54363 2.97975 0.48
v 0.000809239 3.01111 -0.48
v 0.000809841 3.08941 -0.467965
v 1.60342 3.06039 -0.467965
v 1.54363 2.97975 -0.48
v -1.48221 2.9063 0.467965
v -1.42542 2.82628 0.432465
v -1.6586 3.14042 -0.432465
v -1.70955 3.2122 -0.375279
v -1.37446 2.75449 0.375279
v -1.7521 3.27215 -0.299275
v -1.33191 2.69455 0.299275
v -1.78412 3.32026 -0.208264
v -1.2999 2.64944 0.208264
v -1.80399 3.35426 -0.10681
v -1.28003 2.62144 0.10681
v -1.81073 3.36375 0
v -1.27329 2.61195 0
v -1.80399 3.35426 0.10681
v -1.28003 2.62144 -0.10681
v -1.78412 3.32026 0.208264
v -1.2999 2.64944 -0.208264
v -1.7521 3.27215 0.299275
v -1.33191 2.69455 -0.299275
v -1.7521 3.27215 0.299275
v -1.70955 3.2122 0.375279
v -1.37446 2.75449 -0.375279
v -1.6586 3.14042 0.432465
v -1.42542 2.82628 -0.432465
v -1.60181 3.06039 0.467965
v -1.48221 2.9063 -0.467965
v -1.54201 2.97975 0.48
v -1.54201 2.97975 -0.48
v -1.60181 3.06039 -0.467965
v 2.3451 1.9751 -0.467965
v 2.36055 -0.002301 -0.467965
v 2.25278 -0.002301 -0.48
v 2.23733 1.93621 -0.48
v 2.44746 2.00967 -0.432465
v 2.46292 -0.002301 -0.432465
v 2.53929 2.0356 -0.375279
v 2.55474 -0.002301 -0.375279
v 2.61598 2.06585 -0.299275
v 2.63143 -0.002301 -0.299275
v 2.67368 2.08313 -0.208264
v 2.68913 -0.002301 -0.208264
v 2.7095 2.10473 -0.10681
v 2.72495 -0.002301 -0.10681
v 2.72164 2.10473 0
v 2.73709 -0.002301 0
v 2.7095 2.10473 0.10681
v 2.72495 -0.002301 0.10681
v 2.67368 2.08313 0.208264
v 2.68913 -0.002301 0.208264
v 2.61598 2.06585 0.299275
v 2.63143 -0.002301 0.299275
v 2.53929 2.0356 0.375279
v 2.55474 -0.002301 0.375279
v 2.44746 2.00967 0.432465
v 2.46292 -0.002301 0.432465
v 2.3451 1.9751 0.467965
v 2.36055 -0.002301 0.467965
v 2.23733 1.93621 0.48
v 2.25278 -0.002301 0.48
v 2.12956 1.90597 0.467965
v 2.14501 -0.002301 0.467965
v 2.0272 1.88868 0.432465
v 2.04265 -0.002301 0.432465
v 1.93537 1.8714 0.375279
v 1.95082 -0.002301 0.375279
v 1.85868 1.85412 0.299275
v 1.87413 -0.002301 0.299275
v 1.80098 1.85412 0.208264
v 1.81643 -0.002301 0.208264
v 1.76516 1.85412 0.10681
v 1.78062 -0.002301 0.10681
v 1.75302 1.85412 0
v 1.76847 -0.002301 0
v 1.76516 1.85412 -0.10681
v 1.78062 -0.002301 -0.10681
v 1.80098 1.85412 -0.208264
v 1.81643 -0.002301 -0.208264
v 1.85868 1.85412 -0.299275
v 1.87413 -0.002301 -0.299275
v 1.93537 1.8714 -0.375279
v 1.95082 -0.002301 -0.375279
v 2.0272 1.88868 -0.432465
v 2.04265 -0.002301 -0.432465
v 1.78574 3.32026 0.208264
v 1.75372 3.27215 0.299275
v 2.12956 1.90597 -0.467965
v 2.14501 -0.002301 -0.467965
v 1.95082 -0.002301 -0.375279
v 2.04265 -0.002301 -0.432465
v 2.14501 -0.002301 -0.467965
v 1.87413 -0.002301 -0.299275
v 1.81643 -0.002301 -0.208264
v 1.78062 -0.002301 -0.10681
v 1.76847 -0.002301 0
v 1.78062 -0.002301 0.10681
v 1.81643 -0.002301 0.208264
v 1.87413 -0.002301 0.299275
v 1.95082 -0.002301 0.375279
v 2.04265 -0.002301 0.432465
v 2.14501 -0.002301 0.467965
v 2.25278 -0.002301 0.48
v 2.36055 -0.002301 0.467965
v 2.46292 -0.002301 0.432465
v 2.55474 -0.002301 0.375279
v 2.63143 -0.002301 0.299275
v 2.68913 -0.002301 0.208264
v 2.72495 -0.002301 0.10681
v 2.73709 -0.002301 0
v 2.72495 -0.002301 -0.10681
v 2.68913 -0.002301 -0.208264
v 2.63143 -0.002301 -0.299275
v 2.55474 -0.002301 -0.375279
v 2.46292 -0.002301 -0.432465
v 2.36055 -0.002301 -0.467965
v 2.25278 -0.002301 -0.48
v 1.33353 2.69455 0.299275
v 1.30152 2.64944 0.208264
v 1.48383 2.9063 -0.467965
v 1.54363 2.97975 -0.48
v 1.78574 3.32026 -0.208264
v 1.80561 3.35426 -0.10681
v 1.54363 2.97975 0.48
v 1.48383 2.9063 0.467965
v 1.30152 2.64944 -0.208264
v 1.33353 2.69455 -0.299275
v 1.60342 3.06039 -0.467965
v 1.66022 3.14042 -0.432465
v 1.71117 3.2122 0.375279
v 1.28164 2.62144 0.10681
v 1.81235 3.36375 0
v 1.42703 2.82628 0.432465
v 1.37608 2.75449 -0.375279
v 1.71117 3.2122 -0.375279
v 1.66022 3.14042 0.432465
v 1.27491 2.61195 0
v 1.80561 3.35426 0.10681
v 1.37608 2.75449 0.375279
v 1.42703 2.82628 -0.432465
v 1.75372 3.27215 -0.299275
v 1.60342 3.06039 0.467965
v 1.28164 2.62144 -0.10681
v -2.34348 1.9751 -0.467965
v -2.23571 1.93621 -0.48
v -2.25116 -0.002301 -0.48
v -2.35893 -0.002301 -0.467965
v -2.44585 2.00967 -0.432465
v -2.4613 -0.002301 -0.432465
v -2.53767 2.0356 -0.375279
v -2.55312 -0.002301 -0.375279
v -2.61436 2.06585 -0.299275
v -2.62981 -0.002301 -0.299275
v -2.67206 2.08313 -0.208264
v -2.68751 -0.002301 -0.208264
v -2.70788 2.10473 -0.10681
v -2.72333 -0.002301 -0.10681
v -2.72002 2.10473 0
v -2.73547 -0.002301 0
v -2.70788 2.10473 0.10681
v -2.72333 -0.002301 0.10681
v -2.67206 2.08313 0.208264
v -2.68751 -0.002301 0.208264
v -2.61436 2.06585 0.299275
v -2.62981 -0.002301 0.299275
v -2.53767 2.0356 0.375279
v -2.55312 -0.002301 0.375279
v -2.44585 2.00967 0.432465
v -2.4613 -0.002301 0.432465
v -2.34348 1.9751 0.467965
v -2.35893 -0.002301 0.467965
v -2.23571 1.93621 0.48
v -2.25116 -0.002301 0.48
v -2.12794 1.90597 0.467965
v -2.14339 -0.002301 0.467965
v -2.02558 1.88868 0.432465
v -2.04103 -0.002301 0.432465
v -1.93375 1.8714 0.375279
v -1.9492 -0.002301 0.375279
v -1.85706 1.85412 0.299275
v -1.87252 -0.002301 0.299275
v -1.79937 1.85412 0.208264
v -1.81482 -0.002301 0.208264
v -1.76355 1.85412 0.10681
v -1.779 -0.002301 0.10681
v -1.7514 1.85412 0
v -1.76685 -0.002301 0
v -1.76355 1.85412 -0.10681
v -1.779 -0.002301 -0.10681
v -1.79937 1.85412 -0.208264
v -1.81482 -0.002301 -0.208264
v -1.85706 1.85412 -0.299275
v -1.87252 -0.002301 -0.299275
v -1.93375 1.8714 -0.375279
v -1.9492 -0.002301 -0.375279
v -2.02558 1.88868 -0.432465
v -2.04103 -0.002301 -0.432465
v -1.78412 3.32026 0.208264
v -1.7521 3.27215 0.299275
v -2.12794 1.90597 -0.467965
v -2.14339 -0.002301 -0.467965
v -2.55312 -0.002301 -0.375279
v -2.4613 -0.002301 -0.432465
v -2.35893 -0.002301 -0.467965
v -2.62981 -0.002301 -0.299275
v -2.68751 -0.002301 -0.208264
v -2.72333 -0.002301 -0.10681
v -2.73547 -0.002301 0
v -2.72333 -0.002301 0.10681
v -2.68751 -0.002301 0.208264
v -2.62981 -0.002301 0.299275
v -2.55312 -0.002301 0.375279
v -2.4613 -0.002301 0.432465
v -2.35893 -0.002301 0.467965
v -2.25116 -0.002301 0.48
v -2.14339 -0.002301 0.467965
v -2.04103 -0.002301 0.432465
v -1.9492 -0.002301 0.375279
v -1.87252 -0.002301 0.299275
v -1.81482 -0.002301 0.208264
v -1.779 -0.002301 0.10681
v -1.76685 -0.002301 0
v -1.779 -0.002301 -0.10681
v -1.81482 -0.002301 -0.208264
v -1.87252 -0.002301 -0.299275
v -1.9492 -0.002301 -0.375279
v -2.04103 -0.002301 -0.432465
v -2.14339 -0.002301 -0.467965
v -2.25116 -0.002301 -0.48
v -1.33191 2.69455 0.299275
v -1.2999 2.64944 0.208264
v -1.48221 2.9063 -0.467965
v -1.54201 2.97975 -0.48
v -1.78412 3.32026 -0.208264
v -1.80399 3.35426 -0.10681
v -1.54201 2.97975 0.48
v -1.48221 2.9063 0.467965
v -1.2999 2.64944 -0.208264
v -1.33191 2.69455 -0.299275
v -1.60181 3.06039 -0.467965
v -1.6586 3.14042 -0.432465
v -1.70955 3.2122 0.375279
v -1.28003 2.62144 0.10681
v -1.81073 3.36375 0
v -1.42542 2.82628 0.432465
v -1.37446 2.75449 -0.375279
v -1.70955 3.2122 -0.375279
v -1.6586 3.14042 0.432465
v -1.27329 2.61195 0
v -1.80399 3.35426 0.10681
v -1.37446 2.75449 0.375279
v -1.42542 2.82628 -0.432465
v -1.7521 3.27215 -0.299275
v -1.60181 3.06039 0.467965
v -1.28003 2.62144 -0.10681


vn -0 -0.270389 0.962757
vn -0 -0.48706 0.873373
vn -0.206894 -0.370304 0.90558
vn -0.105181 -0.198879 0.974369
vn -0 0.522492 -0.852651
vn -0 0.708162 -0.706051
vn 0.283894 0.554353 -0.782372
vn 0.197383 0.393009 -0.898103
vn -0 -0.678466 0.734635
vn -0.303941 -0.529513 0.791987
vn -0 0.82008 -0.572256
vn 0.360492 0.674365 -0.644432
vn -0 -0.838298 0.545216
vn -0.013648 -0.83822 0.545165
vn -0 0.905891 -0.423526
vn 0.00612991 0.90587 -0.423517
vn -0 -0.9271 0.374831
vn -0.0165432 -0.926972 0.374779
vn -0 0.975698 -0.219127
vn 0.00755244 0.975675 -0.219122
vn -0 -0.978555 0.205988
vn -0.0161873 -0.978427 0.205961
vn -3.10441e-010 0.652433 0
vn 0.00794186 0.99997 0
vn -0 -1 0
vn -0.0150798 -0.999893 0
vn -0 0.975698 0.219127
vn 0.00755244 0.975675 0.219122
vn -0 -0.978555 -0.205988
vn -0.0161873 -0.978427 -0.205961
vn -0 0.905891 0.423526
vn 0.00612991 0.90587 0.423517
vn -0 -0.9271 -0.374831
vn -0.0165432 -0.926972 -0.374779
vn -0 0.82008 0.572256
vn 0.0051 0.8598 0.5106
vn -0 -0.838298 -0.545216
vn -0.013648 -0.83822 -0.545165
vn -0 0.708162 0.706051
vn 0.285007 0.555679 0.781025
vn 0.46479 0.586053 0.663719
vn -0 -0.678466 -0.734635
vn -0.305308 -0.531501 -0.790127
vn -0 0.522492 0.852651
vn 0.197383 0.393009 0.898103
vn -0 -0.48706 -0.873373
vn -0.20888 -0.371079 -0.904806
vn -0 0.274241 0.961662
vn 0.0995362 0.200082 0.974717
vn -0 -0.270389 -0.962757
vn -0.106064 -0.198435 -0.974365
vn -0 -0.00277889 1
vn -0.00131504 -0.00165461 0.999999
vn -0 -0.00277889 -1
vn -0 0.274241 -0.961662
vn 0.0993137 0.199681 -0.974815
vn -0.00131504 -0.00165461 -0.999999
vn 0.105181 -0.198854 0.974369
vn 0.206895 -0.37028 0.905588
vn -0.197383 0.393009 -0.898103
vn -0.283894 0.554353 -0.782372
vn 0.303941 -0.529513 0.791987
vn -0.360492 0.674365 -0.644432
vn 0.013648 -0.83822 0.545165
vn -0.00612991 0.90587 -0.423517
vn 0.0165432 -0.926972 0.374779
vn -0.00755244 0.975675 -0.219122
vn 0.0161873 -0.978427 0.205961
vn -0.00794186 0.99997 0
vn 0.0150798 -0.999893 0
vn -0.00755244 0.975675 0.219122
vn 0.0161873 -0.978427 -0.205961
vn -0.00612991 0.90587 0.423517
vn 0.0165432 -0.926972 -0.374779
vn -0.0051 0.8598 0.5106
vn 0.013648 -0.83822 -0.545165
vn -0.46479 0.586053 0.663719
vn -0.285007 0.555679 0.781025
vn 0.305308 -0.531501 -0.790127
vn -0.197383 0.393009 0.898103
vn 0.208882 -0.371057 -0.904813
vn -0.0995362 0.200082 0.974717
vn 0.106064 -0.19841 -0.974364
vn 0.00131504 -0.00165461 0.999999
vn 0.00131504 -0.00165461 -0.999999
vn -0.0993137 0.199681 -0.974815
vn 0.207397 0.0624062 -0.976267
vn 0.22225 0.00161014 -0.974991
vn -0 0 -1.00001
vn -0.00134473 -0.000376507 -1
vn 0.406278 0.123732 -0.905341
vn 0.433474 0.0031196 -0.901163
vn 0.584287 0.178396 -0.791705
vn 0.62301 0.00442779 -0.782209
vn 0.736071 0.224991 -0.638422
vn 0.781446 0.00548472 -0.623949
vn 0.851834 0.26026 -0.454582
vn 0.900701 0.00623949 -0.4344
vn 0.928762 0.28398 -0.238259
vn 0.974828 0.00669241 -0.222862
vn 0.955935 0.293588 -0.00101957
vn 0.999983 0.006843 0
vn 0.929359 0.284216 0.235627
vn 0.974828 0.00669241 0.222862
vn 0.851202 0.260029 0.455908
vn 0.900701 0.00623949 0.4344
vn 0.736928 0.225248 0.637341
vn 0.781446 0.00548472 0.623949
vn 0.58489 0.17857 0.791215
vn 0.62301 0.00442779 0.782209
vn 0.406685 0.123858 0.905135
vn 0.433474 0.0031196 0.901163
vn 0.207397 0.0624062 0.976267
vn 0.22225 0.00161014 0.974991
vn -0.00134473 -0.000376507 1
vn -0 0 1.00001
vn -0.213478 -0.0625126 0.974953
vn -0.222345 -0.00166042 0.974969
vn -0.416503 -0.120068 0.901172
vn -0.433618 -0.00332082 0.901098
vn -0.598193 -0.169079 0.783317
vn -0.623175 -0.00483043 0.782076
vn -0.755964 -0.211029 0.619665
vn -0.781692 -0.00608849 0.623643
vn -0.871926 -0.242061 0.425621
vn -0.900954 -0.00704421 0.433873
vn -0.940784 -0.259512 0.218143
vn -0.974896 -0.00764782 0.222541
vn -0.964166 -0.26532 0.000816976
vn -0.999976 -0.00784926 0
vn -0.94113 -0.259526 -0.216613
vn -0.974896 -0.00764782 -0.222541
vn -0.871926 -0.242061 -0.425621
vn -0.900954 -0.00704421 -0.433873
vn -0.755964 -0.211029 -0.619665
vn -0.781692 -0.00608849 -0.623643
vn -0.598767 -0.169188 -0.782852
vn -0.623175 -0.00483043 -0.782076
vn -0.41688 -0.120151 -0.90099
vn -0.433618 -0.00332082 -0.901098
vn 0.742227 0.501111 0.444975
vn 0.46479 0.586053 0.663719
vn -0.213478 -0.0625126 -0.974953
vn -0.222345 -0.00166042 -0.974969
vn -0 -1 0
vn -0 -1 0
vn -0 -1 0
vn -0 -1 0
vn -0 -1 0
vn -0 -1 0
vn -0 -1 0
vn -0 -1 0
vn -0 -1 0
vn -0 -1 0
vn -0 -1 0
vn -0 -1 0
vn -0 -1 0
vn -0 -1 0
vn -0 -1 0
vn -0 -1 0
vn -0 -1 0
vn -0 -1 0
vn -0 -1 0
vn -0 -1 0
vn -0 -1 0
vn -0 -1 0
vn -0 -1 0
vn -0 -1 0
vn -0 -1 0
vn -0 -1 0
vn -0 -1 0
vn -0 -1 0
vn -0.695714 -0.410343 0.589588
vn -0.792552 -0.467528 0.391526
vn -0.106064 -0.198435 -0.974365
vn -0.00131504 -0.00165461 -0.999999
vn 0.742227 0.501111 -0.444975
vn 0.805073 0.545984 -0.231888
vn -0.00131504 -0.00165461 0.999999
vn -0.105181 -0.198879 0.974369
vn -0.792552 -0.467528 -0.391526
vn -0.695714 -0.410343 -0.589588
vn 0.0993137 0.199681 -0.974815
vn 0.197383 0.393009 -0.898103
vn 0.285007 0.555679 0.781025
vn -0.843613 -0.499243 0.197687
vn 0.827243 0.561846 0
vn -0.206894 -0.370304 0.90558
vn -0.305308 -0.531501 -0.790127
vn 0.283894 0.554353 -0.782372
vn 0.197383 0.393009 0.898103
vn -0.860344 -0.509714 0
vn 0.805073 0.545984 0.231888
vn -0.303941 -0.529513 0.791987
vn -0.20888 -0.371079 -0.904806
vn 0.360492 0.674365 -0.644432
vn 0.0995362 0.200082 0.974717
vn -0.843613 -0.499243 -0.197687
vn -0.207397 0.0624062 -0.976267
vn 0.00134473 -0.000376507 -1
vn -0 0 -1.00001
vn -0.22225 0.00161014 -0.974991
vn -0.406278 0.123732 -0.905341
vn -0.433474 0.0031196 -0.901163
vn -0.584287 0.178396 -0.791705
vn -0.62301 0.00442779 -0.782209
vn -0.736071 0.224991 -0.638422
vn -0.781446 0.00548472 -0.623949
vn -0.851834 0.26026 -0.454582
vn -0.900701 0.00623949 -0.4344
vn -0.928762 0.28398 -0.238259
vn -0.974828 0.00669241 -0.222862
vn -0.955935 0.293588 -0.00101957
vn -0.999983 0.006843 0
vn -0.929359 0.284216 0.235627
vn -0.974828 0.00669241 0.222862
vn -0.851202 0.260029 0.455908
vn -0.900701 0.00623949 0.4344
vn -0.736928 0.225248 0.637341
vn -0.781446 0.00548472 0.623949
vn -0.58489 0.17857 0.791215
vn -0.62301 0.00442779 0.782209
vn -0.406685 0.123858 0.905135
vn -0.433474 0.0031196 0.901163
vn -0.207397 0.0624062 0.976267
vn -0.22225 0.00161014 0.974991
vn 0.00134473 -0.000376507 1
vn -0 0 1.00001
vn 0.213478 -0.0625126 0.974953
vn 0.222345 -0.00166042 0.974969
vn 0.416503 -0.120068 0.901172
vn 0.433618 -0.00332082 0.901098
vn 0.598193 -0.169079 0.783317
vn 0.623175 -0.00483043 0.782076
vn 0.755964 -0.211029 0.619665
vn 0.781692 -0.00608849 0.623643
vn 0.871926 -0.242061 0.425621
vn 0.900954 -0.00704421 0.433873
vn 0.940784 -0.259512 0.218143
vn 0.974896 -0.00764782 0.222541
vn 0.964166 -0.26532 0.000816976
vn 0.999976 -0.00784926 0
vn 0.94113 -0.259526 -0.216613
vn 0.974896 -0.00764782 -0.222541
vn 0.871926 -0.242061 -0.425621
vn 0.900954 -0.00704421 -0.433873
vn 0.755964 -0.211029 -0.619665
vn 0.781692 -0.00608849 -0.623643
vn 0.598767 -0.169188 -0.782852
vn 0.623175 -0.00483043 -0.782076
vn 0.41688 -0.120151 -0.90099
vn 0.433618 -0.00332082 -0.901098
vn -0.742227 0.501111 0.444975
vn -0.46479 0.586053 0.663719
vn 0.213478 -0.0625126 -0.974953
vn 0.222345 -0.00166042 -0.974969
vn -0 -1 0
vn -0 -1 0
vn -0 -1 0
vn -0 -1 0
vn -0 -1 0
vn -0 -1 0
vn -0 -1 0
vn -0 -1 0
vn -0 -1 0
vn -0 -1 0
vn -0 -1 0
vn -0 -1 0
vn -0 -1 0
vn -0 -1 0
vn -0 -1 0
vn -0 -1 0
vn -0 -1 0
vn -0 -1 0
vn -0 -1 0
vn -0 -1 0
vn -0 -1 0
vn -0 -1 0
vn -0 -1 0
vn -0 -1 0
vn -0 -1 0
vn -0 -1 0
vn -0 -1 0
vn -0 -1 0
vn 0.695714 -0.410343 0.589588
vn 0.792552 -0.467528 0.391526
vn 0.106064 -0.19841 -0.974364
vn 0.00131504 -0.00165461 -0.999999
vn -0.742227 0.501111 -0.444975
vn -0.805073 0.545984 -0.231888
vn 0.00131504 -0.00165461 0.999999
vn 0.105181 -0.198854 0.974369
vn 0.792552 -0.467528 -0.391526
vn 0.695714 -0.410343 -0.589588
vn -0.0993137 0.199681 -0.974815
vn -0.197383 0.393009 -0.898103
vn -0.285007 0.555679 0.781025
vn 0.843613 -0.499243 0.197687
vn -0.827243 0.561846 0
vn 0.206895 -0.37028 0.905588
vn 0.305308 -0.531501 -0.790127
vn -0.283894 0.554353 -0.782372
vn -0.197383 0.393009 0.898103
vn 0.860344 -0.509714 0
vn -0.805073 0.545984 0.231888
vn 0.303941 -0.529513 0.791987
vn 0.208882 -0.371057 -0.904813
vn -0.360492 0.674365 -0.644432
vn -0.0995362 0.200082 0.974717
vn 0.843613 -0.499243 -0.197687


vt 0.502973 0.76687
vt 0.502973 0.749083
vt 0.277032 0.742832
vt 0.268034 0.761068
vt 0.502973 0.819289
vt 0.502973 0.833037
vt 0.232019 0.83078
vt 0.24009 0.814421
vt 0.502973 0.730794
vt 0.285103 0.726472
vt 0.502973 0.846034
vt 0.225278 0.844442
vt 0.502973 0.717113
vt 0.291844 0.71281
vt 0.502973 0.858385
vt 0.220206 0.855405
vt 0.502973 0.70818
vt 0.296916 0.702531
vt 0.502973 0.866054
vt 0.217058 0.863154
vt 0.502973 0.700513
vt 0.300064 0.69615
vt 0.502973 0.868653
vt 0.215991 0.865317
vt 0.502973 0.697914
vt 0.301131 0.693987
vt 0.502973 0.866054
vt 0.217058 0.863154
vt 0.502973 0.700513
vt 0.300064 0.69615
vt 0.502973 0.858385
vt 0.220206 0.855405
vt 0.502973 0.70818
vt 0.296916 0.702531
vt 0.502973 0.846034
vt 0.225278 0.844442
vt 0.502973 0.717113
vt 0.291844 0.71281
vt 0.502973 0.833037
vt 0.232019 0.83078
vt 0.225278 0.844442
vt 0.502973 0.730794
vt 0.285103 0.726472
vt 0.502973 0.819289
vt 0.24009 0.814421
vt 0.502973 0.749083
vt 0.277032 0.742832
vt 0.502973 0.802798
vt 0.249088 0.796185
vt 0.502973 0.76687
vt 0.268034 0.761068
vt 0.502973 0.784952
vt 0.258561 0.777806
vt 0.502973 0.784952
vt 0.502973 0.802798
vt 0.249088 0.796185
vt 0.258561 0.777806
vt 0.737912 0.761068
vt 0.728914 0.742832
vt 0.765855 0.814421
vt 0.773927 0.83078
vt 0.720843 0.726472
vt 0.780668 0.844442
vt 0.714102 0.71281
vt 0.785739 0.855405
vt 0.70903 0.702531
vt 0.788888 0.863154
vt 0.705882 0.69615
vt 0.789955 0.865317
vt 0.704814 0.693987
vt 0.788888 0.863154
vt 0.705882 0.69615
vt 0.785739 0.855405
vt 0.70903 0.702531
vt 0.780668 0.844442
vt 0.714102 0.71281
vt 0.780668 0.844442
vt 0.773927 0.83078
vt 0.720843 0.726472
vt 0.765855 0.814421
vt 0.728914 0.742832
vt 0.756858 0.796185
vt 0.737912 0.761068
vt 0.747385 0.777806
vt 0.747385 0.777806
vt 0.756858 0.796185
vt 0.126984 0.568007
vt 0.122827 0.0974733
vt 0.135437 0.0974733
vt 0.139594 0.559518
vt 0.115005 0.575553
vt 0.110848 0.0974733
vt 0.104259 0.581213
vt 0.100102 0.0974733
vt 0.0952857 0.587816
vt 0.0911288 0.0974733
vt 0.0885338 0.591589
vt 0.0843769 0.0974733
vt 0.0843422 0.596305
vt 0.0801855 0.0974733
vt 0.0829213 0.596305
vt 0.0787644 0.0974733
vt 0.0843422 0.596305
vt 0.0801855 0.0974733
vt 0.0885338 0.591589
vt 0.0843769 0.0974733
vt 0.0952857 0.587816
vt 0.0911288 0.0974733
vt 0.104259 0.581213
vt 0.100102 0.0974733
vt 0.115005 0.575553
vt 0.110848 0.0974733
vt 0.126984 0.568007
vt 0.122827 0.0974733
vt 0.139594 0.559518
vt 0.135437 0.0974733
vt 0.152205 0.552915
vt 0.148049 0.0974733
vt 0.164184 0.549142
vt 0.160027 0.0974733
vt 0.17493 0.545369
vt 0.170773 0.0974733
vt 0.183903 0.541596
vt 0.179747 0.0974733
vt 0.190655 0.541596
vt 0.186498 0.0974733
vt 0.194847 0.541596
vt 0.19069 0.0974733
vt 0.196268 0.541596
vt 0.192111 0.0974733
vt 0.194847 0.541596
vt 0.19069 0.0974733
vt 0.190655 0.541596
vt 0.186498 0.0974733
vt 0.183903 0.541596
vt 0.179747 0.0974733
vt 0.17493 0.545369
vt 0.170773 0.0974733
vt 0.164184 0.549142
vt 0.160027 0.0974733
vt 0.20543 0.803552
vt 0.209177 0.79305
vt 0.152205 0.552915
vt 0.148049 0.0974733
vt 0.170773 0.0974733
vt 0.160027 0.0974733
vt 0.148049 0.0974733
vt 0.179747 0.0974733
vt 0.186498 0.0974733
vt 0.19069 0.0974733
vt 0.192111 0.0974733
vt 0.19069 0.0974733
vt 0.186498 0.0974733
vt 0.179747 0.0974733
vt 0.170773 0.0974733
vt 0.160027 0.0974733
vt 0.148049 0.0974733
vt 0.135437 0.0974733
vt 0.122827 0.0974733
vt 0.110848 0.0974733
vt 0.100102 0.0974733
vt 0.0911288 0.0974733
vt 0.0843769 0.0974733
vt 0.0801855 0.0974733
vt 0.0787644 0.0974733
vt 0.0801855 0.0974733
vt 0.0843769 0.0974733
vt 0.0911288 0.0974733
vt 0.100102 0.0974733
vt 0.110848 0.0974733
vt 0.122827 0.0974733
vt 0.135437 0.0974733
vt 0.258347 0.68009
vt 0.262093 0.670244
vt 0.240759 0.713187
vt 0.233762 0.729219
vt 0.20543 0.803552
vt 0.203105 0.810975
vt 0.233762 0.729219
vt 0.240759 0.713187
vt 0.262093 0.670244
vt 0.258347 0.68009
vt 0.226764 0.746825
vt 0.220118 0.764293
vt 0.214156 0.779964
vt 0.264419 0.664131
vt 0.202316 0.813047
vt 0.247405 0.703592
vt 0.253367 0.693177
vt 0.214156 0.779964
vt 0.220118 0.764293
vt 0.265207 0.662059
vt 0.203105 0.810975
vt 0.253367 0.693177
vt 0.247405 0.703592
vt 0.209177 0.79305
vt 0.226764 0.746825
vt 0.264419 0.664131
vt 0.875851 0.568007
vt 0.863241 0.559518
vt 0.865663 0.0974733
vt 0.878274 0.0974733
vt 0.88783 0.575553
vt 0.890253 0.0974733
vt 0.898575 0.581213
vt 0.900999 0.0974733
vt 0.907549 0.587816
vt 0.909972 0.0974733
vt 0.914301 0.591589
vt 0.916724 0.0974733
vt 0.918493 0.596305
vt 0.920916 0.0974733
vt 0.919913 0.596305
vt 0.922337 0.0974733
vt 0.918493 0.596305
vt 0.920916 0.0974733
vt 0.914301 0.591589
vt 0.916724 0.0974733
vt 0.907549 0.587816
vt 0.909972 0.0974733
vt 0.898575 0.581213
vt 0.900999 0.0974733
vt 0.88783 0.575553
vt 0.890253 0.0974733
vt 0.875851 0.568007
vt 0.878274 0.0974733
vt 0.863241 0.559518
vt 0.865663 0.0974733
vt 0.850629 0.552915
vt 0.853053 0.0974733
vt 0.838651 0.549142
vt 0.841074 0.0974733
vt 0.827905 0.545369
vt 0.830328 0.0974733
vt 0.818932 0.541596
vt 0.821355 0.0974733
vt 0.81218 0.541596
vt 0.814603 0.0974733
vt 0.807988 0.541596
vt 0.810411 0.0974733
vt 0.806567 0.541596
vt 0.80899 0.0974733
vt 0.807988 0.541596
vt 0.810411 0.0974733
vt 0.81218 0.541596
vt 0.814603 0.0974733
vt 0.818932 0.541596
vt 0.821355 0.0974733
vt 0.827905 0.545369
vt 0.830328 0.0974733
vt 0.838651 0.549142
vt 0.841074 0.0974733
vt 0.798393 0.802086
vt 0.794646 0.791585
vt 0.850629 0.552915
vt 0.853053 0.0974733
vt 0.900999 0.0974733
vt 0.890253 0.0974733
vt 0.878274 0.0974733
vt 0.909972 0.0974733
vt 0.916724 0.0974733
vt 0.920916 0.0974733
vt 0.922337 0.0974733
vt 0.920916 0.0974733
vt 0.916724 0.0974733
vt 0.909972 0.0974733
vt 0.900999 0.0974733
vt 0.890253 0.0974733
vt 0.878274 0.0974733
vt 0.865663 0.0974733
vt 0.853053 0.0974733
vt 0.841074 0.0974733
vt 0.830328 0.0974733
vt 0.821355 0.0974733
vt 0.814603 0.0974733
vt 0.810411 0.0974733
vt 0.80899 0.0974733
vt 0.810411 0.0974733
vt 0.814603 0.0974733
vt 0.821355 0.0974733
vt 0.830328 0.0974733
vt 0.841074 0.0974733
vt 0.853053 0.0974733
vt 0.865663 0.0974733
vt 0.745476 0.678625
vt 0.74173 0.668778
vt 0.763064 0.711721
vt 0.770061 0.727754
vt 0.798393 0.802086
vt 0.800718 0.809509
vt 0.770061 0.727754
vt 0.763064 0.711721
vt 0.74173 0.668778
vt 0.745476 0.678625
vt 0.777059 0.745359
vt 0.783705 0.762827
vt 0.789667 0.778498
vt 0.739404 0.662666
vt 0.801506 0.811581
vt 0.756417 0.702126
vt 0.750456 0.691711
vt 0.789667 0.778498
vt 0.783705 0.762827
vt 0.738616 0.660594
vt 0.800718 0.809509
vt 0.750456 0.691711
vt 0.756417 0.702126
vt 0.794646 0.791585
vt 0.777059 0.745359
vt 0.739404 0.662666


usemtl finish

g finish

f 1/1/1 2/2/2 3/3/3
f 1/1/1 3/3/3 4/4/4
f 5/5/5 6/6/6 7/7/7
f 5/5/5 7/7/7 8/8/8
f 2/2/2 9/9/9 10/10/10
f 2/2/2 10/10/10 3/3/3
f 6/6/6 11/11/11 12/12/12
f 6/6/6 12/12/12 7/7/7
f 9/9/9 13/13/13 14/14/14
f 9/9/9 14/14/14 10/10/10
f 11/11/11 15/15/15 16/16/16
f 11/11/11 16/16/16 12/12/12
f 13/13/13 17/17/17 18/18/18
f 13/13/13 18/18/18 14/14/14
f 15/15/15 19/19/19 20/20/20
f 15/15/15 20/20/20 16/16/16
f 17/17/17 21/21/21 22/22/22
f 17/17/17 22/22/22 18/18/18
f 19/19/19 23/23/23 24/24/24
f 19/19/19 24/24/24 20/20/20
f 21/21/21 25/25/25 26/26/26
f 21/21/21 26/26/26 22/22/22
f 23/23/23 27/27/27 28/28/28
f 23/23/23 28/28/28 24/24/24
f 25/25/25 29/29/29 30/30/30
f 25/25/25 30/30/30 26/26/26
f 27/27/27 31/31/31 32/32/32
f 27/27/27 32/32/32 28/28/28
f 29/29/29 33/33/33 34/34/34
f 29/29/29 34/34/34 30/30/30
f 31/31/31 35/35/35 36/36/36
f 31/31/31 36/36/36 32/32/32
f 33/33/33 37/37/37 38/38/38
f 33/33/33 38/38/38 34/34/34
f 35/35/35 39/39/39 40/40/40
f 35/35/35 40/40/40 41/41/41
f 37/37/37 42/42/42 43/43/43
f 37/37/37 43/43/43 38/38/38
f 39/39/39 44/44/44 45/45/45
f 39/39/39 45/45/45 40/40/40
f 42/42/42 46/46/46 47/47/47
f 42/42/42 47/47/47 43/43/43
f 44/44/44 48/48/48 49/49/49
f 44/44/44 49/49/49 45/45/45
f 46/46/46 50/50/50 51/51/51
f 46/46/46 51/51/51 47/47/47
f 48/48/48 52/52/52 53/53/53
f 48/48/48 53/53/53 49/49/49
f 54/54/54 55/55/55 56/56/56
f 54/54/54 56/56/56 57/57/57
f 50/50/50 54/54/54 57/57/57
f 50/50/50 57/57/57 51/51/51
f 52/52/52 1/1/1 4/4/4
f 52/52/52 4/4/4 53/53/53
f 55/55/55 5/5/5 8/8/8
f 55/55/55 8/8/8 56/56/56
f 1/1/1 58/58/58 59/59/59
f 1/1/1 59/59/59 2/2/2
f 5/5/5 60/60/60 61/61/61
f 5/5/5 61/61/61 6/6/6
f 2/2/2 59/59/59 62/62/62
f 2/2/2 62/62/62 9/9/9
f 6/6/6 61/61/61 63/63/63
f 6/6/6 63/63/63 11/11/11
f 9/9/9 62/62/62 64/64/64
f 9/9/9 64/64/64 13/13/13
f 11/11/11 63/63/63 65/65/65
f 11/11/11 65/65/65 15/15/15
f 13/13/13 64/64/64 66/66/66
f 13/13/13 66/66/66 17/17/17
f 15/15/15 65/65/65 67/67/67
f 15/15/15 67/67/67 19/19/19
f 17/17/17 66/66/66 68/68/68
f 17/17/17 68/68/68 21/21/21
f 19/19/19 67/67/67 69/69/69
f 19/19/19 69/69/69 23/23/23
f 21/21/21 68/68/68 70/70/70
f 21/21/21 70/70/70 25/25/25
f 23/23/23 69/69/69 71/71/71
f 23/23/23 71/71/71 27/27/27
f 25/25/25 70/70/70 72/72/72
f 25/25/25 72/72/72 29/29/29
f 27/27/27 71/71/71 73/73/73
f 27/27/27 73/73/73 31/31/31
f 29/29/29 72/72/72 74/74/74
f 29/29/29 74/74/74 33/33/33
f 31/31/31 73/73/73 75/75/75
f 31/31/31 75/75/75 35/35/35
f 33/33/33 74/74/74 76/76/76
f 33/33/33 76/76/76 37/37/37
f 35/35/35 77/77/77 78/78/78
f 35/35/35 78/78/78 39/39/39
f 37/37/37 76/76/76 79/79/79
f 37/37/37 79/79/79 42/42/42
f 39/39/39 78/78/78 80/80/80
f 39/39/39 80/80/80 44/44/44
f 42/42/42 79/79/79 81/81/81
f 42/42/42 81/81/81 46/46/46
f 44/44/44 80/80/80 82/82/82
f 44/44/44 82/82/82 48/48/48
f 46/46/46 81/81/81 83/83/83
f 46/46/46 83/83/83 50/50/50
f 48/48/48 82/82/82 84/84/84
f 48/48/48 84/84/84 52/52/52
f 54/54/54 85/85/85 86/86/86
f 54/54/54 86/86/86 55/55/55
f 50/50/50 83/83/83 85/85/85
f 50/50/50 85/85/85 54/54/54
f 52/52/52 84/84/84 58/58/58
f 52/52/52 58/58/58 1/1/1
f 55/55/55 86/86/86 60/60/60
f 55/55/55 60/60/60 5/5/5
f 87/87/87 88/88/88 89/89/89
f 87/87/87 89/89/89 90/90/90
f 91/91/91 92/92/92 88/88/88
f 91/91/91 88/88/88 87/87/87
f 93/93/93 94/94/94 92/92/92
f 93/93/93 92/92/92 91/91/91
f 95/95/95 96/96/96 94/94/94
f 95/95/95 94/94/94 93/93/93
f 97/97/97 98/98/98 96/96/96
f 97/97/97 96/96/96 95/95/95
f 99/99/99 100/100/100 98/98/98
f 99/99/99 98/98/98 97/97/97
f 101/101/101 102/102/102 100/100/100
f 101/101/101 100/100/100 99/99/99
f 103/103/103 104/104/104 102/102/102
f 103/103/103 102/102/102 101/101/101
f 105/105/105 106/106/106 104/104/104
f 105/105/105 104/104/104 103/103/103
f 107/107/107 108/108/108 106/106/106
f 107/107/107 106/106/106 105/105/105
f 109/109/109 110/110/110 108/108/108
f 109/109/109 108/108/108 107/107/107
f 111/111/111 112/112/112 110/110/110
f 111/111/111 110/110/110 109/109/109
f 113/113/113 114/114/114 112/112/112
f 113/113/113 112/112/112 111/111/111
f 115/115/115 116/116/116 114/114/114
f 115/115/115 114/114/114 113/113/113
f 117/117/117 118/118/118 116/116/116
f 117/117/117 116/116/116 115/115/115
f 119/119/119 120/120/120 118/118/118
f 119/119/119 118/118/118 117/117/117
f 121/121/121 122/122/122 120/120/120
f 121/121/121 120/120/120 119/119/119
f 123/123/123 124/124/124 122/122/122
f 123/123/123 122/122/122 121/121/121
f 125/125/125 126/126/126 124/124/124
f 125/125/125 124/124/124 123/123/123
f 127/127/127 128/128/128 126/126/126
f 127/127/127 126/126/126 125/125/125
f 129/129/129 130/130/130 128/128/128
f 129/129/129 128/128/128 127/127/127
f 131/131/131 132/132/132 130/130/130
f 131/131/131 130/130/130 129/129/129
f 133/133/133 134/134/134 132/132/132
f 133/133/133 132/132/132 131/131/131
f 135/135/135 136/136/136 134/134/134
f 135/135/135 134/134/134 133/133/133
f 137/137/137 138/138/138 136/136/136
f 137/137/137 136/136/136 135/135/135
f 139/139/139 140/140/140 138/138/138
f 139/139/139 138/138/138 137/137/137
f 141/141/141 142/142/142 107/107/107
f 141/141/141 107/107/107 105/105/105
f 143/143/143 144/144/144 140/140/140
f 143/143/143 140/140/140 139/139/139
f 90/90/90 89/89/89 144/144/144
f 90/90/90 144/144/144 143/143/143
f 145/145/145 146/146/146 147/147/147
f 148/148/148 145/145/145 147/147/147
f 149/149/149 148/148/148 147/147/147
f 150/150/150 149/149/149 147/147/147
f 151/151/151 150/150/150 147/147/147
f 152/152/152 151/151/151 147/147/147
f 153/153/153 152/152/152 147/147/147
f 154/154/154 153/153/153 147/147/147
f 155/155/155 154/154/154 147/147/147
f 156/156/156 155/155/155 147/147/147
f 157/157/157 156/156/156 147/147/147
f 158/158/158 157/157/157 147/147/147
f 159/159/159 158/158/158 147/147/147
f 160/160/160 159/159/159 147/147/147
f 161/161/161 160/160/160 147/147/147
f 162/162/162 161/161/161 147/147/147
f 163/163/163 162/162/162 147/147/147
f 164/164/164 163/163/163 147/147/147
f 165/165/165 164/164/164 147/147/147
f 166/166/166 165/165/165 147/147/147
f 167/167/167 166/166/166 147/147/147
f 168/168/168 167/167/167 147/147/147
f 169/169/169 168/168/168 147/147/147
f 170/170/170 169/169/169 147/147/147
f 171/171/171 170/170/170 147/147/147
f 172/172/172 171/171/171 147/147/147
f 173/173/173 174/174/174 125/125/125
f 173/173/173 125/125/125 123/123/123
f 175/175/175 176/176/176 90/90/90
f 175/175/175 90/90/90 143/143/143
f 177/177/177 178/178/178 99/99/99
f 177/177/177 99/99/99 97/97/97
f 179/179/179 180/180/180 117/117/117
f 179/179/179 117/117/117 115/115/115
f 181/181/181 182/182/182 135/135/135
f 181/181/181 135/135/135 133/133/133
f 183/183/183 184/184/184 91/91/91
f 183/183/183 91/91/91 87/87/87
f 142/142/142 185/185/185 109/109/109
f 142/142/142 109/109/109 107/107/107
f 174/174/174 186/186/186 127/127/127
f 174/174/174 127/127/127 125/125/125
f 178/178/178 187/187/187 101/101/101
f 178/178/178 101/101/101 99/99/99
f 180/180/180 188/188/188 119/119/119
f 180/180/180 119/119/119 117/117/117
f 182/182/182 189/189/189 137/137/137
f 182/182/182 137/137/137 135/135/135
f 184/184/184 190/190/190 93/93/93
f 184/184/184 93/93/93 91/91/91
f 185/185/185 191/191/191 111/111/111
f 185/185/185 111/111/111 109/109/109
f 186/186/186 192/192/192 129/129/129
f 186/186/186 129/129/129 127/127/127
f 187/187/187 193/193/193 103/103/103
f 187/187/187 103/103/103 101/101/101
f 188/188/188 194/194/194 121/121/121
f 188/188/188 121/121/121 119/119/119
f 189/189/189 195/195/195 139/139/139
f 189/189/189 139/139/139 137/137/137
f 190/190/190 196/196/196 95/95/95
f 190/190/190 95/95/95 93/93/93
f 191/191/191 197/197/197 113/113/113
f 191/191/191 113/113/113 111/111/111
f 192/192/192 198/198/198 131/131/131
f 192/192/192 131/131/131 129/129/129
f 193/193/193 141/141/141 105/105/105
f 193/193/193 105/105/105 103/103/103
f 194/194/194 173/173/173 123/123/123
f 194/194/194 123/123/123 121/121/121
f 195/195/195 175/175/175 143/143/143
f 195/195/195 143/143/143 139/139/139
f 196/196/196 177/177/177 97/97/97
f 196/196/196 97/97/97 95/95/95
f 197/197/197 179/179/179 115/115/115
f 197/197/197 115/115/115 113/113/113
f 198/198/198 181/181/181 133/133/133
f 198/198/198 133/133/133 131/131/131
f 176/176/176 183/183/183 87/87/87
f 176/176/176 87/87/87 90/90/90
f 199/199/199 200/200/200 201/201/201
f 199/199/199 201/201/201 202/202/202
f 203/203/203 199/199/199 202/202/202
f 203/203/203 202/202/202 204/204/204
f 205/205/205 203/203/203 204/204/204
f 205/205/205 204/204/204 206/206/206
f 207/207/207 205/205/205 206/206/206
f 207/207/207 206/206/206 208/208/208
f 209/209/209 207/207/207 208/208/208
f 209/209/209 208/208/208 210/210/210
f 211/211/211 209/209/209 210/210/210
f 211/211/211 210/210/210 212/212/212
f 213/213/213 211/211/211 212/212/212
f 213/213/213 212/212/212 214/214/214
f 215/215/215 213/213/213 214/214/214
f 215/215/215 214/214/214 216/216/216
f 217/217/217 215/215/215 216/216/216
f 217/217/217 216/216/216 218/218/218
f 219/219/219 217/217/217 218/218/218
f 219/219/219 218/218/218 220/220/220
f 221/221/221 219/219/219 220/220/220
f 221/221/221 220/220/220 222/222/222
f 223/223/223 221/221/221 222/222/222
f 223/223/223 222/222/222 224/224/224
f 225/225/225 223/223/223 224/224/224
f 225/225/225 224/224/224 226/226/226
f 227/227/227 225/225/225 226/226/226
f 227/227/227 226/226/226 228/228/228
f 229/229/229 227/227/227 228/228/228
f 229/229/229 228/228/228 230/230/230
f 231/231/231 229/229/229 230/230/230
f 231/231/231 230/230/230 232/232/232
f 233/233/233 231/231/231 232/232/232
f 233/233/233 232/232/232 234/234/234
f 235/235/235 233/233/233 234/234/234
f 235/235/235 234/234/234 236/236/236
f 237/237/237 235/235/235 236/236/236
f 237/237/237 236/236/236 238/238/238
f 239/239/239 237/237/237 238/238/238
f 239/239/239 238/238/238 240/240/240
f 241/241/241 239/239/239 240/240/240
f 241/241/241 240/240/240 242/242/242
f 243/243/243 241/241/241 242/242/242
f 243/243/243 242/242/242 244/244/244
f 245/245/245 243/243/243 244/244/244
f 245/245/245 244/244/244 246/246/246
f 247/247/247 245/245/245 246/246/246
f 247/247/247 246/246/246 248/248/248
f 249/249/249 247/247/247 248/248/248
f 249/249/249 248/248/248 250/250/250
f 251/251/251 249/249/249 250/250/250
f 251/251/251 250/250/250 252/252/252
f 253/253/253 217/217/217 219/219/219
f 253/253/253 219/219/219 254/254/254
f 255/255/255 251/251/251 252/252/252
f 255/255/255 252/252/252 256/256/256
f 200/200/200 255/255/255 256/256/256
f 200/200/200 256/256/256 201/201/201
f 257/257/257 258/258/258 259/259/259
f 260/260/260 257/257/257 259/259/259
f 261/261/261 260/260/260 259/259/259
f 262/262/262 261/261/261 259/259/259
f 263/263/263 262/262/262 259/259/259
f 264/264/264 263/263/263 259/259/259
f 265/265/265 264/264/264 259/259/259
f 266/266/266 265/265/265 259/259/259
f 267/267/267 266/266/266 259/259/259
f 268/268/268 267/267/267 259/259/259
f 269/269/269 268/268/268 259/259/259
f 270/270/270 269/269/269 259/259/259
f 271/271/271 270/270/270 259/259/259
f 272/272/272 271/271/271 259/259/259
f 273/273/273 272/272/272 259/259/259
f 274/274/274 273/273/273 259/259/259
f 275/275/275 274/274/274 259/259/259
f 276/276/276 275/275/275 259/259/259
f 277/277/277 276/276/276 259/259/259
f 278/278/278 277/277/277 259/259/259
f 279/279/279 278/278/278 259/259/259
f 280/280/280 279/279/279 259/259/259
f 281/281/281 280/280/280 259/259/259
f 282/282/282 281/281/281 259/259/259
f 283/283/283 282/282/282 259/259/259
f 284/284/284 283/283/283 259/259/259
f 285/285/285 235/235/235 237/237/237
f 285/285/285 237/237/237 286/286/286
f 287/287/287 255/255/255 200/200/200
f 287/287/287 200/200/200 288/288/288
f 289/289/289 209/209/209 211/211/211
f 289/289/289 211/211/211 290/290/290
f 291/291/291 227/227/227 229/229/229
f 291/291/291 229/229/229 292/292/292
f 293/293/293 245/245/245 247/247/247
f 293/293/293 247/247/247 294/294/294
f 295/295/295 199/199/199 203/203/203
f 295/295/295 203/203/203 296/296/296
f 254/254/254 219/219/219 221/221/221
f 254/254/254 221/221/221 297/297/297
f 286/286/286 237/237/237 239/239/239
f 286/286/286 239/239/239 298/298/298
f 290/290/290 211/211/211 213/213/213
f 290/290/290 213/213/213 299/299/299
f 292/292/292 229/229/229 231/231/231
f 292/292/292 231/231/231 300/300/300
f 294/294/294 247/247/247 249/249/249
f 294/294/294 249/249/249 301/301/301
f 296/296/296 203/203/203 205/205/205
f 296/296/296 205/205/205 302/302/302
f 297/297/297 221/221/221 223/223/223
f 297/297/297 223/223/223 303/303/303
f 298/298/298 239/239/239 241/241/241
f 298/298/298 241/241/241 304/304/304
f 299/299/299 213/213/213 215/215/215
f 299/299/299 215/215/215 305/305/305
f 300/300/300 231/231/231 233/233/233
f 300/300/300 233/233/233 306/306/306
f 301/301/301 249/249/249 251/251/251
f 301/301/301 251/251/251 307/307/307
f 302/302/302 205/205/205 207/207/207
f 302/302/302 207/207/207 308/308/308
f 303/303/303 223/223/223 225/225/225
f 303/303/303 225/225/225 309/309/309
f 304/304/304 241/241/241 243/243/243
f 304/304/304 243/243/243 310/310/310
f 305/305/305 215/215/215 217/217/217
f 305/305/305 217/217/217 253/253/253
f 306/306/306 233/233/233 235/235/235
f 306/306/306 235/235/235 285/285/285
f 307/307/307 251/251/251 255/255/255
f 307/307/307 255/255/255 287/287/287
f 308/308/308 207/207/207 209/209/209
f 308/308/308 209/209/209 289/289/289
f 309/309/309 225/225/225 227/227/227
f 309/309/309 227/227/227 291/291/291
f 310/310/310 243/243/243 245/245/245
f 310/310/310 245/245/245 293/293/293
f 288/288/288 200/200/200 199/199/199
f 288/288/288 199/199/199 295/295/295
